<?xml version="1.0" encoding="utf-8" standalone="no"?>
<!DOCTYPE svg PUBLIC "-//W3C//DTD SVG 1.1//EN"
  "http://www.w3.org/Graphics/SVG/1.1/DTD/svg11.dtd">
<svg xmlns:xlink="http://www.w3.org/1999/xlink" width="576pt" height="288pt" viewBox="0 0 576 288" xmlns="http://www.w3.org/2000/svg" version="1.1">
 <metadata>
  <rdf:RDF xmlns:dc="http://purl.org/dc/elements/1.1/" xmlns:cc="http://creativecommons.org/ns#" xmlns:rdf="http://www.w3.org/1999/02/22-rdf-syntax-ns#">
   <cc:Work>
    <dc:type rdf:resource="http://purl.org/dc/dcmitype/StillImage"/>
    <dc:date>2025-01-26T14:19:22.285308</dc:date>
    <dc:format>image/svg+xml</dc:format>
    <dc:creator>
     <cc:Agent>
      <dc:title>Matplotlib v3.6.3, https://matplotlib.org/</dc:title>
     </cc:Agent>
    </dc:creator>
   </cc:Work>
  </rdf:RDF>
 </metadata>
 <defs>
  <style type="text/css">*{stroke-linejoin: round; stroke-linecap: butt}</style>
 </defs>
 <g id="figure_1">
  <g id="patch_1">
   <path d="M 0 288 
L 576 288 
L 576 0 
L 0 0 
z
" style="fill: #ffffff"/>
  </g>
  <g id="axes_1">
   <g id="Quiver_1">
    <path d="M 93.960315 150.2132 
L 142.299423 145.295755 
L 140.243791 142.053302 
L 157.846154 145.44 
L 141.286366 152.301948 
L 142.646948 148.71197 
L 94.30784 153.629415 
L 93.960315 150.2132 
" style="fill-opacity: 0.3"/>
   </g>
   <g id="Quiver_2">
    <path d="M 95.348125 150.70726 
L 198.883232 254.242367 
L 200.09728 250.600223 
L 208.595615 266.382846 
L 192.812992 257.88451 
L 196.455136 256.670462 
L 92.920029 153.135356 
L 95.348125 150.70726 
" style="fill: url(#h1afc885a3c)"/>
   </g>
   <g id="patch_2">
    <path d="M 94.134077 151.921308 
L 184.407046 176.109877 
L 160.218477 85.836908 
L 94.134077 151.921308 
z
" style="fill: none; stroke: #ff0000; stroke-linejoin: miter"/>
   </g>
   <g id="patch_3">
    <path style="fill: none; stroke: #000000; stroke-opacity: 0.5; stroke-linejoin: miter"/>
   </g>
   <g id="patch_4">
    <path style="fill: none; stroke: #000000; stroke-opacity: 0.5; stroke-linejoin: miter"/>
   </g>
   <g id="line2d_1">
    <defs>
     <path id="m478374023e" d="M 0 1.5 
C 0.397805 1.5 0.77937 1.341951 1.06066 1.06066 
C 1.341951 0.77937 1.5 0.397805 1.5 0 
C 1.5 -0.397805 1.341951 -0.77937 1.06066 -1.06066 
C 0.77937 -1.341951 0.397805 -1.5 0 -1.5 
C -0.397805 -1.5 -0.77937 -1.341951 -1.06066 -1.06066 
C -1.341951 -0.77937 -1.5 -0.397805 -1.5 0 
C -1.5 0.397805 -1.341951 0.77937 -1.06066 1.06066 
C -0.77937 1.341951 -0.397805 1.5 0 1.5 
z
" style="stroke: #1f77b4"/>
    </defs>
    <g>
     <use xlink:href="#m478374023e" x="157.846154" y="145.44" style="fill: #1f77b4; stroke: #1f77b4"/>
    </g>
   </g>
   <g id="text_1">
    <!-- P -->
    <g transform="translate(157.846154 142.1125) scale(0.16 -0.16)">
     <defs>
      <path id="DejaVuSans-50" d="M 1259 4147 
L 1259 2394 
L 2053 2394 
Q 2494 2394 2734 2622 
Q 2975 2850 2975 3272 
Q 2975 3691 2734 3919 
Q 2494 4147 2053 4147 
L 1259 4147 
z
M 628 4666 
L 2053 4666 
Q 2838 4666 3239 4311 
Q 3641 3956 3641 3272 
Q 3641 2581 3239 2228 
Q 2838 1875 2053 1875 
L 1259 1875 
L 1259 0 
L 628 0 
L 628 4666 
z
" transform="scale(0.015625)"/>
     </defs>
     <use xlink:href="#DejaVuSans-50"/>
    </g>
   </g>
   <g id="text_2">
    <!-- $\vec u$ -->
    <g transform="translate(118.232539 142.870731) scale(0.16 -0.16)">
     <defs>
      <path id="DejaVuSans-20d7" d="M -3009 4066 
L -3009 4378 
L -694 4378 
L -1106 4863 
L -713 4863 
L -166 4222 
L -713 3581 
L -1106 3581 
L -694 4066 
L -3009 4066 
z
" transform="scale(0.015625)"/>
      <path id="DejaVuSans-Oblique-75" d="M 428 1388 
L 838 3500 
L 1416 3500 
L 1006 1409 
Q 975 1256 961 1147 
Q 947 1038 947 966 
Q 947 700 1109 554 
Q 1272 409 1569 409 
Q 2031 409 2368 721 
Q 2706 1034 2809 1563 
L 3194 3500 
L 3769 3500 
L 3091 0 
L 2516 0 
L 2631 550 
Q 2388 244 2052 76 
Q 1716 -91 1338 -91 
Q 878 -91 622 161 
Q 366 413 366 863 
Q 366 956 381 1097 
Q 397 1238 428 1388 
z
" transform="scale(0.015625)"/>
     </defs>
     <use xlink:href="#DejaVuSans-20d7" transform="translate(58.308594 12.015625)"/>
     <use xlink:href="#DejaVuSans-Oblique-75" transform="translate(0 0.78125)"/>
    </g>
   </g>
   <g id="text_3">
    <!-- $\vec v$ -->
    <g transform="translate(151.364846 205.824577) scale(0.16 -0.16)">
     <defs>
      <path id="DejaVuSans-Oblique-76" d="M 459 3500 
L 1069 3500 
L 1581 525 
L 3256 3500 
L 3866 3500 
L 1875 0 
L 1100 0 
L 459 3500 
z
" transform="scale(0.015625)"/>
     </defs>
     <use xlink:href="#DejaVuSans-20d7" transform="translate(58.320312 12.015625)"/>
     <use xlink:href="#DejaVuSans-Oblique-76" transform="translate(0 0.78125)"/>
    </g>
   </g>
   <g id="text_4">
    <path d="M 87.049077 157.008808 
Q 87.589077 156.038808 88.339077 155.578808 
Q 89.089077 155.118808 90.104077 155.118808 
Q 91.471577 155.118808 92.214077 156.076308 
Q 92.956577 157.031308 92.956577 158.796308 
L 92.956577 164.078808 
L 91.511577 164.078808 
L 91.511577 158.843808 
Q 91.511577 157.586308 91.064077 156.978808 
Q 90.619077 156.368808 89.706577 156.368808 
Q 88.589077 156.368808 87.939077 157.111308 
Q 87.291577 157.851308 87.291577 159.133808 
L 87.291577 164.078808 
L 85.846577 164.078808 
L 85.846577 158.843808 
Q 85.846577 157.578808 85.401577 156.973808 
Q 84.956577 156.368808 84.026577 156.368808 
Q 82.924077 156.368808 82.274077 157.113808 
Q 81.626577 157.858808 81.626577 159.133808 
L 81.626577 164.078808 
L 80.181577 164.078808 
L 80.181577 155.328808 
L 81.626577 155.328808 
L 81.626577 156.688808 
Q 82.119077 155.883808 82.806577 155.501308 
Q 83.494077 155.118808 84.439077 155.118808 
Q 85.394077 155.118808 86.061577 155.603808 
Q 86.729077 156.086308 87.049077 157.008808 
z
M 96.190015 162.093808 
L 97.837515 162.093808 
L 97.837515 163.438808 
L 96.557515 165.938808 
L 95.550015 165.938808 
L 96.190015 163.438808 
L 96.190015 162.093808 
z
M 108.183452 158.796308 
L 108.183452 164.078808 
L 106.745952 164.078808 
L 106.745952 158.843808 
Q 106.745952 157.601308 106.260952 156.986308 
Q 105.775952 156.368808 104.808452 156.368808 
Q 103.643452 156.368808 102.970952 157.111308 
Q 102.298452 157.851308 102.298452 159.133808 
L 102.298452 164.078808 
L 100.853452 164.078808 
L 100.853452 155.328808 
L 102.298452 155.328808 
L 102.298452 156.688808 
Q 102.815952 155.898808 103.513452 155.508808 
Q 104.213452 155.118808 105.128452 155.118808 
Q 106.635952 155.118808 107.408452 156.051308 
Q 108.183452 156.983808 108.183452 158.796308 
z
" style="stroke: #ffffff; stroke-width: 3; stroke-linecap: round"/>
    <path d="M 87.049077 157.008808 
Q 87.589077 156.038808 88.339077 155.578808 
Q 89.089077 155.118808 90.104077 155.118808 
Q 91.471577 155.118808 92.214077 156.076308 
Q 92.956577 157.031308 92.956577 158.796308 
L 92.956577 164.078808 
L 91.511577 164.078808 
L 91.511577 158.843808 
Q 91.511577 157.586308 91.064077 156.978808 
Q 90.619077 156.368808 89.706577 156.368808 
Q 88.589077 156.368808 87.939077 157.111308 
Q 87.291577 157.851308 87.291577 159.133808 
L 87.291577 164.078808 
L 85.846577 164.078808 
L 85.846577 158.843808 
Q 85.846577 157.578808 85.401577 156.973808 
Q 84.956577 156.368808 84.026577 156.368808 
Q 82.924077 156.368808 82.274077 157.113808 
Q 81.626577 157.858808 81.626577 159.133808 
L 81.626577 164.078808 
L 80.181577 164.078808 
L 80.181577 155.328808 
L 81.626577 155.328808 
L 81.626577 156.688808 
Q 82.119077 155.883808 82.806577 155.501308 
Q 83.494077 155.118808 84.439077 155.118808 
Q 85.394077 155.118808 86.061577 155.603808 
Q 86.729077 156.086308 87.049077 157.008808 
z
M 96.190015 162.093808 
L 97.837515 162.093808 
L 97.837515 163.438808 
L 96.557515 165.938808 
L 95.550015 165.938808 
L 96.190015 163.438808 
L 96.190015 162.093808 
z
M 108.183452 158.796308 
L 108.183452 164.078808 
L 106.745952 164.078808 
L 106.745952 158.843808 
Q 106.745952 157.601308 106.260952 156.986308 
Q 105.775952 156.368808 104.808452 156.368808 
Q 103.643452 156.368808 102.970952 157.111308 
Q 102.298452 157.851308 102.298452 159.133808 
L 102.298452 164.078808 
L 100.853452 164.078808 
L 100.853452 155.328808 
L 102.298452 155.328808 
L 102.298452 156.688808 
Q 102.815952 155.898808 103.513452 155.508808 
Q 104.213452 155.118808 105.128452 155.118808 
Q 106.635952 155.118808 107.408452 156.051308 
Q 108.183452 156.983808 108.183452 158.796308 
z
"/>
   </g>
   <g id="text_5">
    <!-- 0 -->
    <g transform="translate(-17.027404 393.407668) scale(0.1 -0.1)">
     <defs>
      <path id="DejaVuSans-30" d="M 2034 4250 
Q 1547 4250 1301 3770 
Q 1056 3291 1056 2328 
Q 1056 1369 1301 889 
Q 1547 409 2034 409 
Q 2525 409 2770 889 
Q 3016 1369 3016 2328 
Q 3016 3291 2770 3770 
Q 2525 4250 2034 4250 
z
M 2034 4750 
Q 2819 4750 3233 4129 
Q 3647 3509 3647 2328 
Q 3647 1150 3233 529 
Q 2819 -91 2034 -91 
Q 1250 -91 836 529 
Q 422 1150 422 2328 
Q 422 3509 836 4129 
Q 1250 4750 2034 4750 
z
" transform="scale(0.015625)"/>
     </defs>
     <use xlink:href="#DejaVuSans-30"/>
    </g>
   </g>
   <g id="text_6">
    <!-- 0 -->
    <g transform="translate(-31.654808 377.122452) scale(0.1 -0.1)">
     <use xlink:href="#DejaVuSans-30"/>
    </g>
   </g>
   <g id="text_7">
    <!-- 1 -->
    <g transform="translate(97.434135 393.407668) scale(0.1 -0.1)">
     <defs>
      <path id="DejaVuSans-31" d="M 794 531 
L 1825 531 
L 1825 4091 
L 703 3866 
L 703 4441 
L 1819 4666 
L 2450 4666 
L 2450 531 
L 3481 531 
L 3481 0 
L 794 0 
L 794 531 
z
" transform="scale(0.015625)"/>
     </defs>
     <use xlink:href="#DejaVuSans-31"/>
    </g>
   </g>
   <g id="text_8">
    <!-- 1 -->
    <g transform="translate(-31.654808 262.660913) scale(0.1 -0.1)">
     <use xlink:href="#DejaVuSans-31"/>
    </g>
   </g>
   <g id="text_9">
    <!-- x -->
    <g transform="translate(234.222308 386.520577) scale(0.16 -0.16)">
     <defs>
      <path id="DejaVuSans-78" d="M 3513 3500 
L 2247 1797 
L 3578 0 
L 2900 0 
L 1881 1375 
L 863 0 
L 184 0 
L 1544 1831 
L 300 3500 
L 978 3500 
L 1906 2253 
L 2834 3500 
L 3513 3500 
z
" transform="scale(0.015625)"/>
     </defs>
     <use xlink:href="#DejaVuSans-78"/>
    </g>
   </g>
   <g id="text_10">
    <!-- y -->
    <g transform="translate(-23.316154 71.751346) scale(0.16 -0.16)">
     <defs>
      <path id="DejaVuSans-79" d="M 2059 -325 
Q 1816 -950 1584 -1140 
Q 1353 -1331 966 -1331 
L 506 -1331 
L 506 -850 
L 844 -850 
Q 1081 -850 1212 -737 
Q 1344 -625 1503 -206 
L 1606 56 
L 191 3500 
L 800 3500 
L 1894 763 
L 2988 3500 
L 3597 3500 
L 2059 -325 
z
" transform="scale(0.015625)"/>
     </defs>
     <use xlink:href="#DejaVuSans-79"/>
    </g>
   </g>
  </g>
 </g>
 <defs>
  <pattern id="h1afc885a3c" patternUnits="userSpaceOnUse" x="0" y="0" width="72" height="72">
   <rect x="0" y="0" width="73" height="73" fill="#ff0000"/>
   <path d="M -36 36 
L 36 -36 
M -32 40 
L 40 -32 
M -28 44 
L 44 -28 
M -24 48 
L 48 -24 
M -20 52 
L 52 -20 
M -16 56 
L 56 -16 
M -12 60 
L 60 -12 
M -8 64 
L 64 -8 
M -4 68 
L 68 -4 
M 0 72 
L 72 0 
M 4 76 
L 76 4 
M 8 80 
L 80 8 
M 12 84 
L 84 12 
M 16 88 
L 88 16 
M 20 92 
L 92 20 
M 24 96 
L 96 24 
M 28 100 
L 100 28 
M 32 104 
L 104 32 
M 36 108 
L 108 36 
" style="fill: #ffffff; stroke: #ffffff; stroke-width: 1.0; stroke-linecap: butt; stroke-linejoin: miter"/>
  </pattern>
 </defs>
</svg>
