<?xml version="1.0" encoding="utf-8" standalone="no"?>
<!DOCTYPE svg PUBLIC "-//W3C//DTD SVG 1.1//EN"
  "http://www.w3.org/Graphics/SVG/1.1/DTD/svg11.dtd">
<svg xmlns:xlink="http://www.w3.org/1999/xlink" width="576pt" height="288pt" viewBox="0 0 576 288" xmlns="http://www.w3.org/2000/svg" version="1.1">
 <metadata>
  <rdf:RDF xmlns:dc="http://purl.org/dc/elements/1.1/" xmlns:cc="http://creativecommons.org/ns#" xmlns:rdf="http://www.w3.org/1999/02/22-rdf-syntax-ns#">
   <cc:Work>
    <dc:type rdf:resource="http://purl.org/dc/dcmitype/StillImage"/>
    <dc:date>2025-02-20T22:38:27.406227</dc:date>
    <dc:format>image/svg+xml</dc:format>
    <dc:creator>
     <cc:Agent>
      <dc:title>Matplotlib v3.6.3, https://matplotlib.org/</dc:title>
     </cc:Agent>
    </dc:creator>
   </cc:Work>
  </rdf:RDF>
 </metadata>
 <defs>
  <style type="text/css">*{stroke-linejoin: round; stroke-linecap: butt}</style>
 </defs>
 <g id="figure_1">
  <g id="patch_1">
   <path d="M 0 288 
L 576 288 
L 576 0 
L 0 0 
z
" style="fill: #ffffff"/>
  </g>
  <g id="axes_1">
   <g id="patch_2">
    <path d="M 157.846154 145.44 
L 141.112603 150.59384 
L 142.589027 148.142601 
L 94.249919 153.060046 
L 94.018235 150.782569 
L 142.357344 145.865124 
L 140.417553 143.76141 
z
" style="fill-opacity: 0.3; stroke: #000000; stroke-opacity: 0.3; stroke-linejoin: miter"/>
   </g>
   <g id="patch_3">
    <path d="M 208.595615 266.382846 
L 194.02704 256.670462 
L 196.859819 256.26578 
L 93.324712 152.730673 
L 94.943442 151.111942 
L 198.478549 254.647049 
L 198.883232 251.814271 
z
" style="fill: #ff0000; stroke: #ff0000; stroke-linejoin: miter"/>
   </g>
   <g id="patch_4">
    <path style="fill: none; stroke: #000000; stroke-opacity: 0.5; stroke-linejoin: miter"/>
   </g>
   <g id="patch_5">
    <path style="fill: none; stroke: #000000; stroke-opacity: 0.5; stroke-linejoin: miter"/>
   </g>
   <g id="line2d_1">
    <defs>
     <path id="m8e4a1911df" d="M 0 1.5 
C 0.397805 1.5 0.77937 1.341951 1.06066 1.06066 
C 1.341951 0.77937 1.5 0.397805 1.5 0 
C 1.5 -0.397805 1.341951 -0.77937 1.06066 -1.06066 
C 0.77937 -1.341951 0.397805 -1.5 0 -1.5 
C -0.397805 -1.5 -0.77937 -1.341951 -1.06066 -1.06066 
C -1.341951 -0.77937 -1.5 -0.397805 -1.5 0 
C -1.5 0.397805 -1.341951 0.77937 -1.06066 1.06066 
C -0.77937 1.341951 -0.397805 1.5 0 1.5 
z
" style="stroke: #1f77b4"/>
    </defs>
    <g>
     <use xlink:href="#m8e4a1911df" x="157.846154" y="145.44" style="fill: #1f77b4; stroke: #1f77b4"/>
    </g>
   </g>
   <g id="line2d_2">
    <defs>
     <path id="m753160f162" d="M 0 1.5 
C 0.397805 1.5 0.77937 1.341951 1.06066 1.06066 
C 1.341951 0.77937 1.5 0.397805 1.5 0 
C 1.5 -0.397805 1.341951 -0.77937 1.06066 -1.06066 
C 0.77937 -1.341951 0.397805 -1.5 0 -1.5 
C -0.397805 -1.5 -0.77937 -1.341951 -1.06066 -1.06066 
C -1.341951 -0.77937 -1.5 -0.397805 -1.5 0 
C -1.5 0.397805 -1.341951 0.77937 -1.06066 1.06066 
C -0.77937 1.341951 -0.397805 1.5 0 1.5 
z
" style="stroke: #008000"/>
    </defs>
    <g>
     <use xlink:href="#m753160f162" x="94.134077" y="151.921308" style="fill: #008000; stroke: #008000"/>
    </g>
   </g>
   <g id="text_1">
    <!-- P -->
    <g transform="translate(157.846154 141.564366) scale(0.2 -0.2)">
     <defs>
      <path id="CMSS17-50" d="M 2106 1856 
C 2874 1856 3501 2447 3501 3139 
C 3501 3818 2899 4416 2067 4416 
L 570 4416 
L 570 0 
L 1107 0 
L 1107 1856 
L 2106 1856 
z
M 1926 4057 
C 2669 4057 2995 3598 2995 3139 
C 2995 2711 2694 2227 1926 2227 
L 1094 2227 
L 1094 4057 
L 1926 4057 
z
" transform="scale(0.015625)"/>
     </defs>
     <use xlink:href="#CMSS17-50" transform="scale(0.996264)"/>
    </g>
   </g>
   <g id="text_2">
    <!-- O -->
    <g transform="translate(87.231655 148.045674) scale(0.2 -0.2)">
     <defs>
      <path id="CMSS17-4f" d="M 4096 2201 
C 4096 3541 3219 4544 2214 4544 
C 1210 4544 333 3535 333 2201 
C 333 855 1222 -128 2214 -128 
C 3206 -128 4096 855 4096 2201 
z
M 2214 275 
C 1510 275 870 1067 870 2285 
C 870 3470 1549 4140 2214 4140 
C 2880 4140 3558 3470 3558 2285 
C 3558 1061 2912 275 2214 275 
z
" transform="scale(0.015625)"/>
     </defs>
     <use xlink:href="#CMSS17-4f" transform="scale(0.996264)"/>
    </g>
   </g>
   <g id="text_3">
    <!-- $\vec u$ -->
    <g transform="translate(117.052519 142.322597) scale(0.2 -0.2)">
     <defs>
      <path id="CMMI12-7e" d="M 3424 3840 
C 3347 3769 3110 3545 3110 3455 
C 3110 3391 3168 3334 3232 3334 
C 3290 3334 3315 3372 3360 3436 
C 3514 3628 3686 3750 3834 3833 
C 3898 3872 3942 3891 3942 3961 
C 3942 4019 3891 4051 3853 4083 
C 3674 4204 3629 4377 3610 4454 
C 3590 4505 3571 4582 3482 4582 
C 3443 4582 3366 4556 3366 4460 
C 3366 4403 3405 4249 3526 4076 
L 1376 4076 
C 1267 4076 1158 4076 1158 3955 
C 1158 3840 1274 3840 1376 3840 
L 3424 3840 
z
" transform="scale(0.015625)"/>
      <path id="CMMI12-75" d="M 2182 370 
C 2266 12 2573 -64 2726 -64 
C 2931 -64 3085 70 3187 287 
C 3296 517 3379 893 3379 913 
C 3379 944 3354 970 3315 970 
C 3258 970 3251 938 3226 842 
C 3110 402 2995 64 2739 64 
C 2547 64 2547 274 2547 357 
C 2547 504 2566 568 2630 836 
C 2675 1008 2720 1181 2758 1359 
L 3021 2400 
C 3066 2560 3066 2572 3066 2591 
C 3066 2687 2989 2752 2893 2752 
C 2707 2752 2662 2591 2624 2432 
C 2560 2183 2214 810 2170 587 
C 2163 587 1914 64 1446 64 
C 1114 64 1050 351 1050 587 
C 1050 951 1229 1462 1395 1890 
C 1472 2094 1504 2177 1504 2305 
C 1504 2579 1306 2816 998 2816 
C 410 2816 173 1890 173 1838 
C 173 1813 198 1781 243 1781 
C 301 1781 307 1807 333 1896 
C 486 2445 736 2687 979 2687 
C 1043 2687 1146 2681 1146 2477 
C 1146 2311 1075 2126 979 1883 
C 698 1123 666 881 666 689 
C 666 38 1158 -64 1421 -64 
C 1830 -64 2054 217 2182 370 
z
" transform="scale(0.015625)"/>
     </defs>
     <use xlink:href="#CMMI12-7e" transform="scale(0.996264)"/>
     <use xlink:href="#CMMI12-75" transform="translate(1.579784 0) scale(0.996264)"/>
    </g>
   </g>
   <g id="text_4">
    <!-- $\vec v$ -->
    <g style="fill: #ff0000" transform="translate(151.364846 205.276443) scale(0.2 -0.2)">
     <defs>
      <path id="CMMI12-76" d="M 2925 2388 
C 2925 2790 2720 2816 2669 2816 
C 2515 2816 2374 2662 2374 2534 
C 2374 2458 2419 2413 2445 2388 
C 2509 2330 2675 2158 2675 1826 
C 2675 1558 2291 64 1523 64 
C 1133 64 1056 389 1056 625 
C 1056 945 1203 1392 1376 1851 
C 1478 2113 1504 2177 1504 2305 
C 1504 2573 1312 2816 998 2816 
C 410 2816 173 1890 173 1838 
C 173 1813 198 1781 243 1781 
C 301 1781 307 1807 333 1896 
C 486 2445 736 2687 979 2687 
C 1037 2687 1146 2687 1146 2477 
C 1146 2311 1075 2126 979 1883 
C 672 1066 672 868 672 715 
C 672 574 691 313 890 134 
C 1120 -64 1440 -64 1498 -64 
C 2560 -64 2925 2024 2925 2388 
z
" transform="scale(0.015625)"/>
     </defs>
     <use xlink:href="#CMMI12-7e" transform="scale(0.996264)"/>
     <use xlink:href="#CMMI12-76" transform="translate(3.972363 0) scale(0.996264)"/>
    </g>
   </g>
   <g id="text_5">
    <path d="M 92.638182 159.91148 
C 92.638182 158.569637 92.29883 156.991181 90.066576 156.991181 
C 88.57218 156.991181 87.675542 157.928292 87.277036 158.510484 
C 86.919004 157.451953 86.08152 156.991181 84.886003 156.991181 
C 83.531706 156.991181 82.675542 157.769512 82.217883 158.329911 
L 82.217883 157.093921 
L 80.76396 157.093921 
L 80.76396 165.758304 
L 82.277036 165.758304 
L 82.277036 160.913971 
C 82.277036 159.730907 82.716015 158.208491 84.129465 158.208491 
C 85.944533 158.208491 85.944533 159.491181 85.944533 160.073373 
L 85.944533 165.758304 
L 87.457609 165.758304 
L 87.457609 160.913971 
C 87.457609 159.730907 87.896588 158.208491 89.310038 158.208491 
C 91.125106 158.208491 91.125106 159.491181 91.125106 160.073373 
L 91.125106 165.758304 
L 92.638182 165.758304 
L 92.638182 159.91148 
z
M 97.521393 165.739624 
L 97.521393 164.164282 
L 95.92737 164.164282 
L 95.92737 165.758304 
L 96.425502 165.758304 
L 95.908691 168.171131 
L 96.705702 168.171131 
L 97.521393 165.739624 
z
M 107.489621 159.91148 
C 107.489621 158.650583 107.190742 156.991181 104.936695 156.991181 
C 103.663345 156.991181 102.82586 157.651206 102.268575 158.329911 
L 102.268575 157.093921 
L 100.814652 157.093921 
L 100.814652 165.758304 
L 102.327728 165.758304 
L 102.327728 160.913971 
C 102.327728 159.649961 102.80718 158.208491 104.161477 158.208491 
C 105.914279 158.208491 105.973432 159.391555 105.973432 160.073373 
L 105.973432 165.758304 
L 107.489621 165.758304 
L 107.489621 159.91148 
z
" style="stroke: #ffffff; stroke-width: 3; stroke-linecap: round"/>
    <path d="M 92.638182 159.91148 
C 92.638182 158.569637 92.29883 156.991181 90.066576 156.991181 
C 88.57218 156.991181 87.675542 157.928292 87.277036 158.510484 
C 86.919004 157.451953 86.08152 156.991181 84.886003 156.991181 
C 83.531706 156.991181 82.675542 157.769512 82.217883 158.329911 
L 82.217883 157.093921 
L 80.76396 157.093921 
L 80.76396 165.758304 
L 82.277036 165.758304 
L 82.277036 160.913971 
C 82.277036 159.730907 82.716015 158.208491 84.129465 158.208491 
C 85.944533 158.208491 85.944533 159.491181 85.944533 160.073373 
L 85.944533 165.758304 
L 87.457609 165.758304 
L 87.457609 160.913971 
C 87.457609 159.730907 87.896588 158.208491 89.310038 158.208491 
C 91.125106 158.208491 91.125106 159.491181 91.125106 160.073373 
L 91.125106 165.758304 
L 92.638182 165.758304 
L 92.638182 159.91148 
z
M 97.521393 165.739624 
L 97.521393 164.164282 
L 95.92737 164.164282 
L 95.92737 165.758304 
L 96.425502 165.758304 
L 95.908691 168.171131 
L 96.705702 168.171131 
L 97.521393 165.739624 
z
M 107.489621 159.91148 
C 107.489621 158.650583 107.190742 156.991181 104.936695 156.991181 
C 103.663345 156.991181 102.82586 157.651206 102.268575 158.329911 
L 102.268575 157.093921 
L 100.814652 157.093921 
L 100.814652 165.758304 
L 102.327728 165.758304 
L 102.327728 160.913971 
C 102.327728 159.649961 102.80718 158.208491 104.161477 158.208491 
C 105.914279 158.208491 105.973432 159.391555 105.973432 160.073373 
L 105.973432 165.758304 
L 107.489621 165.758304 
L 107.489621 159.91148 
z
"/>
   </g>
   <g id="text_6">
    <!-- 0 -->
    <g transform="translate(-16.336821 392.727729) scale(0.1 -0.1)">
     <defs>
      <path id="CMSS17-30" d="M 2758 2073 
C 2758 2439 2752 3120 2490 3647 
C 2227 4153 1805 4288 1504 4288 
C 1069 4288 698 4031 506 3621 
C 301 3191 243 2748 243 2073 
C 243 1611 262 1046 493 551 
C 755 6 1197 -128 1498 -128 
C 1894 -128 2278 83 2496 525 
C 2720 988 2758 1495 2758 2073 
z
M 1498 262 
C 1011 262 864 821 819 1007 
C 742 1328 730 1636 730 2144 
C 730 2542 730 2992 851 3345 
C 998 3756 1254 3897 1498 3897 
C 1971 3897 2125 3422 2176 3255 
C 2272 2915 2272 2516 2272 2144 
C 2272 1546 2272 262 1498 262 
z
" transform="scale(0.015625)"/>
     </defs>
     <use xlink:href="#CMSS17-30" transform="scale(0.996264)"/>
    </g>
   </g>
   <g id="text_7">
    <!-- 0 -->
    <g transform="translate(-30.273643 376.853737) scale(0.1 -0.1)">
     <use xlink:href="#CMSS17-30" transform="scale(0.996264)"/>
    </g>
   </g>
   <g id="text_8">
    <!-- 1 -->
    <g transform="translate(98.124717 392.727729) scale(0.1 -0.1)">
     <defs>
      <path id="CMSS17-31" d="M 1818 4288 
L 1696 4288 
C 1350 3949 947 3902 538 3891 
L 538 3520 
C 723 3526 1024 3539 1325 3673 
L 1325 371 
L 570 371 
L 570 0 
L 2573 0 
L 2573 371 
L 1818 371 
L 1818 4288 
z
" transform="scale(0.015625)"/>
     </defs>
     <use xlink:href="#CMSS17-31" transform="scale(0.996264)"/>
    </g>
   </g>
   <g id="text_9">
    <!-- 1 -->
    <g transform="translate(-30.273643 262.392198) scale(0.1 -0.1)">
     <use xlink:href="#CMSS17-31" transform="scale(0.996264)"/>
    </g>
   </g>
   <g id="text_10">
    <!-- x -->
    <g transform="translate(236.552502 385.432665) scale(0.16 -0.16)">
     <defs>
      <path id="CMSS17-78" d="M 1587 1420 
L 2656 2752 
L 2099 2752 
L 1363 1785 
L 602 2752 
L 32 2752 
L 1139 1420 
L 0 0 
L 563 0 
L 1363 1126 
L 2195 0 
L 2758 0 
L 1587 1420 
z
" transform="scale(0.015625)"/>
     </defs>
     <use xlink:href="#CMSS17-78" transform="scale(0.996264)"/>
    </g>
   </g>
   <g id="text_11">
    <!-- y -->
    <g transform="translate(-20.98596 70.663434) scale(0.16 -0.16)">
     <defs>
      <path id="CMSS17-79" d="M 2675 2752 
L 2176 2752 
C 1632 1293 1446 701 1434 383 
L 1427 383 
C 1408 695 1126 1459 902 2006 
L 602 2752 
L 83 2752 
L 1216 14 
C 1146 -177 1043 -464 1011 -527 
C 870 -884 774 -884 672 -884 
C 646 -884 442 -877 211 -807 
L 250 -1229 
C 410 -1261 570 -1280 685 -1280 
C 845 -1280 1165 -1280 1459 -495 
L 2675 2752 
z
" transform="scale(0.015625)"/>
     </defs>
     <use xlink:href="#CMSS17-79" transform="scale(0.996264)"/>
    </g>
   </g>
  </g>
 </g>
</svg>
