<?xml version="1.0" encoding="UTF-8" standalone="no"?>
<svg
   width="432pt"
   height="216pt"
   viewBox="0 0 432 216"
   version="1.1"
   id="svg171"
   sodipodi:docname="scaling-2d-scaling.svg"
   inkscape:version="1.2.2 (b0a8486541, 2022-12-01)"
   xmlns:inkscape="http://www.inkscape.org/namespaces/inkscape"
   xmlns:sodipodi="http://sodipodi.sourceforge.net/DTD/sodipodi-0.dtd"
   xmlns:xlink="http://www.w3.org/1999/xlink"
   xmlns="http://www.w3.org/2000/svg"
   xmlns:svg="http://www.w3.org/2000/svg"
   xmlns:rdf="http://www.w3.org/1999/02/22-rdf-syntax-ns#"
   xmlns:cc="http://creativecommons.org/ns#"
   xmlns:dc="http://purl.org/dc/elements/1.1/">
  <sodipodi:namedview
     id="namedview173"
     pagecolor="#ffffff"
     bordercolor="#000000"
     borderopacity="0.25"
     inkscape:showpageshadow="2"
     inkscape:pageopacity="0.0"
     inkscape:pagecheckerboard="0"
     inkscape:deskcolor="#d1d1d1"
     inkscape:document-units="pt"
     showgrid="false"
     inkscape:zoom="1.6388889"
     inkscape:cx="246.20339"
     inkscape:cy="154.67797"
     inkscape:window-width="1415"
     inkscape:window-height="877"
     inkscape:window-x="25"
     inkscape:window-y="0"
     inkscape:window-maximized="1"
     inkscape:current-layer="svg171" />
  <metadata
     id="metadata2">
    <rdf:RDF>
      <cc:Work>
        <dc:type
           rdf:resource="http://purl.org/dc/dcmitype/StillImage" />
        <dc:date>2025-01-24T14:53:42.914126</dc:date>
        <dc:format>image/svg+xml</dc:format>
        <dc:creator>
          <cc:Agent>
            <dc:title>Matplotlib v3.6.3, https://matplotlib.org/</dc:title>
          </cc:Agent>
        </dc:creator>
      </cc:Work>
    </rdf:RDF>
  </metadata>
  <defs
     id="defs6">
    <marker
       style="overflow:visible"
       id="Arrow4"
       refX="0"
       refY="0"
       orient="auto-start-reverse"
       inkscape:stockid="Arrow4"
       markerWidth="5"
       markerHeight="6"
       viewBox="0 0 5 6"
       inkscape:isstock="true"
       inkscape:collect="always"
       preserveAspectRatio="xMidYMid">
      <path
         style="fill:context-stroke;fill-rule:evenodd;stroke:none"
         d="m 1,0 -3,3 h -2 l 3,-3 -3,-3 h 2 z"
         id="path1741" />
    </marker>
    <style
       type="text/css"
       id="style4">*{stroke-linejoin: round; stroke-linecap: butt}</style>
  </defs>
  <g
     id="figure_1">
    <g
       id="patch_1">
      <path
         d="M 0 216  L 432 216  L 432 0  L 0 0  z "
         style="fill: #ffffff"
         id="path8" />
    </g>
    <g
       id="axes_1">
      <g
         id="patch_2">
        <path
           d="M 54 173.464615  L 182.769231 173.464615  L 182.769231 44.695385  L 54 44.695385  z "
           style="fill: #ffffff"
           id="path11" />
      </g>
      <g
         id="patch_3">
        <path
           d="M 99.989011 127.475604  L 145.978022 127.475604  L 145.978022 81.486593  L 99.989011 81.486593  L 99.989011 127.475604  z "
           clip-path="url(#p31f23741a5)"
           style="fill: none; stroke: #000000; stroke-linejoin: miter"
           id="path14" />
      </g>
      <g
         id="patch_4">
        <path
           d="M 113.785714 122.876703  L 118.384615 122.876703  L 118.384615 109.08  L 132.181319 109.08  L 132.181319 104.481099  L 118.384615 104.481099  L 118.384615 95.283297  L 136.78022 95.283297  L 136.78022 90.684396  L 113.785714 90.684396  L 113.785714 122.876703  z "
           clip-path="url(#p31f23741a5)"
           style="fill: none; stroke: #000000; stroke-linejoin: miter"
           id="path17" />
      </g>
      <g
         id="patch_5">
        <path
           d="M 54 127.475604  L 182.769231 127.475604  L 54 127.475604  z "
           clip-path="url(#p31f23741a5)"
           style="fill: none; stroke: #000000; stroke-opacity: 0.5; stroke-linejoin: miter"
           id="path20" />
      </g>
      <g
         id="patch_6">
        <path
           d="M 99.989011 173.464615  L 99.989011 44.695385  L 99.989011 173.464615  z "
           clip-path="url(#p31f23741a5)"
           style="fill: none; stroke: #000000; stroke-opacity: 0.5; stroke-linejoin: miter"
           id="path23" />
      </g>
      <g
         id="matplotlib.axis_1" />
      <g
         id="matplotlib.axis_2" />
      <g
         id="patch_7">
        <path
           d="M 54 173.464615  L 54 44.695385  "
           style="fill: none; stroke: #000000; stroke-width: 0.8; stroke-linejoin: miter; stroke-linecap: square"
           id="path28" />
      </g>
      <g
         id="patch_8">
        <path
           d="M 182.769231 173.464615  L 182.769231 44.695385  "
           style="fill: none; stroke: #000000; stroke-width: 0.8; stroke-linejoin: miter; stroke-linecap: square"
           id="path31" />
      </g>
      <g
         id="patch_9">
        <path
           d="M 54 173.464615  L 182.769231 173.464615  "
           style="fill: none; stroke: #000000; stroke-width: 0.8; stroke-linejoin: miter; stroke-linecap: square"
           id="path34" />
      </g>
      <g
         id="patch_10">
        <path
           d="M 54 44.695385  L 182.769231 44.695385  "
           style="fill: none; stroke: #000000; stroke-width: 0.8; stroke-linejoin: miter; stroke-linecap: square"
           id="path37" />
      </g>
      <g
         id="text_1">
        <!-- $(0,0)$ -->
        <g
           transform="translate(74.289011 135.074042) scale(0.1 -0.1)"
           id="g56">
          <defs
             id="defs44">
            <path
               id="DejaVuSans-28"
               d="M 1984 4856  Q 1566 4138 1362 3434  Q 1159 2731 1159 2009  Q 1159 1288 1364 580  Q 1569 -128 1984 -844  L 1484 -844  Q 1016 -109 783 600  Q 550 1309 550 2009  Q 550 2706 781 3412  Q 1013 4119 1484 4856  L 1984 4856  z "
               transform="scale(0.015625)" />
            <path
               id="DejaVuSans-30"
               d="M 2034 4250  Q 1547 4250 1301 3770  Q 1056 3291 1056 2328  Q 1056 1369 1301 889  Q 1547 409 2034 409  Q 2525 409 2770 889  Q 3016 1369 3016 2328  Q 3016 3291 2770 3770  Q 2525 4250 2034 4250  z M 2034 4750  Q 2819 4750 3233 4129  Q 3647 3509 3647 2328  Q 3647 1150 3233 529  Q 2819 -91 2034 -91  Q 1250 -91 836 529  Q 422 1150 422 2328  Q 422 3509 836 4129  Q 1250 4750 2034 4750  z "
               transform="scale(0.015625)" />
            <path
               id="DejaVuSans-2c"
               d="M 750 794  L 1409 794  L 1409 256  L 897 -744  L 494 -744  L 750 256  L 750 794  z "
               transform="scale(0.015625)" />
            <path
               id="DejaVuSans-29"
               d="M 513 4856  L 1013 4856  Q 1481 4119 1714 3412  Q 1947 2706 1947 2009  Q 1947 1309 1714 600  Q 1481 -109 1013 -844  L 513 -844  Q 928 -128 1133 580  Q 1338 1288 1338 2009  Q 1338 2731 1133 3434  Q 928 4138 513 4856  z "
               transform="scale(0.015625)" />
          </defs>
          <use
             xlink:href="#DejaVuSans-28"
             transform="translate(0 0.125)"
             id="use46" />
          <use
             xlink:href="#DejaVuSans-30"
             transform="translate(39.013672 0.125)"
             id="use48" />
          <use
             xlink:href="#DejaVuSans-2c"
             transform="translate(102.636719 0.125)"
             id="use50" />
          <use
             xlink:href="#DejaVuSans-30"
             transform="translate(153.90625 0.125)"
             id="use52" />
          <use
             xlink:href="#DejaVuSans-29"
             transform="translate(217.529297 0.125)"
             id="use54" />
        </g>
      </g>
      <g
         id="text_2">
        <!-- $(1,1)$ -->
        <g
           transform="translate(145.978022 79.406906) scale(0.1 -0.1)"
           id="g72">
          <defs
             id="defs60">
            <path
               id="DejaVuSans-31"
               d="M 794 531  L 1825 531  L 1825 4091  L 703 3866  L 703 4441  L 1819 4666  L 2450 4666  L 2450 531  L 3481 531  L 3481 0  L 794 0  L 794 531  z "
               transform="scale(0.015625)" />
          </defs>
          <use
             xlink:href="#DejaVuSans-28"
             transform="translate(0 0.125)"
             id="use62" />
          <use
             xlink:href="#DejaVuSans-31"
             transform="translate(39.013672 0.125)"
             id="use64" />
          <use
             xlink:href="#DejaVuSans-2c"
             transform="translate(102.636719 0.125)"
             id="use66" />
          <use
             xlink:href="#DejaVuSans-31"
             transform="translate(153.90625 0.125)"
             id="use68" />
          <use
             xlink:href="#DejaVuSans-29"
             transform="translate(217.529297 0.125)"
             id="use70" />
        </g>
      </g>
      <g
         id="text_3">
        <!-- x -->
        <g
           transform="translate(167.652679 123.316229) scale(0.2 -0.2)"
           id="g80">
          <defs
             id="defs76">
            <path
               id="DejaVuSans-78"
               d="M 3513 3500  L 2247 1797  L 3578 0  L 2900 0  L 1881 1375  L 863 0  L 184 0  L 1544 1831  L 300 3500  L 978 3500  L 1906 2253  L 2834 3500  L 3513 3500  z "
               transform="scale(0.015625)" />
          </defs>
          <use
             xlink:href="#DejaVuSans-78"
             id="use78" />
        </g>
      </g>
      <g
         id="text_4">
        <!-- y -->
        <g
           transform="translate(84.872459 59.411937) scale(0.2 -0.2)"
           id="g88">
          <defs
             id="defs84">
            <path
               id="DejaVuSans-79"
               d="M 2059 -325  Q 1816 -950 1584 -1140  Q 1353 -1331 966 -1331  L 506 -1331  L 506 -850  L 844 -850  Q 1081 -850 1212 -737  Q 1344 -625 1503 -206  L 1606 56  L 191 3500  L 800 3500  L 1894 763  L 2988 3500  L 3597 3500  L 2059 -325  z "
               transform="scale(0.015625)" />
          </defs>
          <use
             xlink:href="#DejaVuSans-79"
             id="use86" />
        </g>
      </g>
    </g>
    <g
       id="axes_2">
      <g
         id="patch_11">
        <path
           d="M 260.030769 173.464615  L 388.8 173.464615  L 388.8 44.695385  L 260.030769 44.695385  z "
           style="fill: #ffffff"
           id="path92" />
      </g>
      <g
         id="patch_12">
        <path
           d="M 306.01978 127.475604  L 329.014286 127.475604  L 329.014286 104.481099  L 306.01978 104.481099  L 306.01978 127.475604  z "
           clip-path="url(#p13dd1afec0)"
           style="fill: none; stroke: #ff0000; stroke-linejoin: miter"
           id="path95" />
      </g>
      <g
         id="patch_13">
        <path
           d="M 312.918132 125.176154  L 315.217582 125.176154  L 315.217582 118.277802  L 322.115934 118.277802  L 322.115934 115.978352  L 315.217582 115.978352  L 315.217582 111.379451  L 324.415385 111.379451  L 324.415385 109.08  L 312.918132 109.08  L 312.918132 125.176154  z "
           clip-path="url(#p13dd1afec0)"
           style="fill: none; stroke: #ff0000; stroke-linejoin: miter"
           id="path98" />
      </g>
      <g
         id="patch_14">
        <path
           d="M 260.030769 127.475604  L 388.8 127.475604  L 260.030769 127.475604  z "
           clip-path="url(#p13dd1afec0)"
           style="fill: none; stroke: #000000; stroke-opacity: 0.5; stroke-linejoin: miter"
           id="path101" />
      </g>
      <g
         id="patch_15">
        <path
           d="M 306.01978 173.464615  L 306.01978 44.695385  L 306.01978 173.464615  z "
           clip-path="url(#p13dd1afec0)"
           style="fill: none; stroke: #000000; stroke-opacity: 0.5; stroke-linejoin: miter"
           id="path104" />
      </g>
      <g
         id="matplotlib.axis_3" />
      <g
         id="matplotlib.axis_4" />
      <g
         id="patch_16">
        <path
           d="M 260.030769 173.464615  L 260.030769 44.695385  "
           style="fill: none; stroke: #000000; stroke-width: 0.8; stroke-linejoin: miter; stroke-linecap: square"
           id="path109" />
      </g>
      <g
         id="patch_17">
        <path
           d="M 388.8 173.464615  L 388.8 44.695385  "
           style="fill: none; stroke: #000000; stroke-width: 0.8; stroke-linejoin: miter; stroke-linecap: square"
           id="path112" />
      </g>
      <g
         id="patch_18">
        <path
           d="M 260.030769 173.464615  L 388.8 173.464615  "
           style="fill: none; stroke: #000000; stroke-width: 0.8; stroke-linejoin: miter; stroke-linecap: square"
           id="path115" />
      </g>
      <g
         id="patch_19">
        <path
           d="M 260.030769 44.695385  L 388.8 44.695385  "
           style="fill: none; stroke: #000000; stroke-width: 0.8; stroke-linejoin: miter; stroke-linecap: square"
           id="path118" />
      </g>
      <g
         id="text_5">
        <!-- $(0,0)$ -->
        <g
           transform="translate(280.31978 135.074042) scale(0.1 -0.1)"
           id="g131">
          <use
             xlink:href="#DejaVuSans-28"
             transform="translate(0 0.125)"
             id="use121" />
          <use
             xlink:href="#DejaVuSans-30"
             transform="translate(39.013672 0.125)"
             id="use123" />
          <use
             xlink:href="#DejaVuSans-2c"
             transform="translate(102.636719 0.125)"
             id="use125" />
          <use
             xlink:href="#DejaVuSans-30"
             transform="translate(153.90625 0.125)"
             id="use127" />
          <use
             xlink:href="#DejaVuSans-29"
             transform="translate(217.529297 0.125)"
             id="use129" />
        </g>
      </g>
      <g
         id="text_6">
        <!-- $(a,b)$ -->
        <g
           transform="translate(329.014286 102.401411) scale(0.1 -0.1)"
           id="g148">
          <defs
             id="defs136">
            <path
               id="DejaVuSans-Oblique-61"
               d="M 3438 1997  L 3047 0  L 2472 0  L 2578 531  Q 2325 219 2001 64  Q 1678 -91 1281 -91  Q 834 -91 548 182  Q 263 456 263 884  Q 263 1497 752 1853  Q 1241 2209 2100 2209  L 2900 2209  L 2931 2363  Q 2938 2388 2941 2417  Q 2944 2447 2944 2509  Q 2944 2788 2717 2942  Q 2491 3097 2081 3097  Q 1800 3097 1504 3025  Q 1209 2953 897 2809  L 997 3341  Q 1322 3463 1633 3523  Q 1944 3584 2234 3584  Q 2853 3584 3176 3315  Q 3500 3047 3500 2534  Q 3500 2431 3484 2292  Q 3469 2153 3438 1997  z M 2816 1759  L 2241 1759  Q 1534 1759 1195 1570  Q 856 1381 856 984  Q 856 709 1029 553  Q 1203 397 1509 397  Q 1978 397 2328 733  Q 2678 1069 2791 1631  L 2816 1759  z "
               transform="scale(0.015625)" />
            <path
               id="DejaVuSans-Oblique-62"
               d="M 3169 2138  Q 3169 2591 2961 2847  Q 2753 3103 2388 3103  Q 2122 3103 1889 2973  Q 1656 2844 1484 2597  Q 1303 2338 1198 1995  Q 1094 1653 1094 1313  Q 1094 881 1298 636  Q 1503 391 1863 391  Q 2134 391 2365 517  Q 2597 644 2772 891  Q 2950 1147 3059 1487  Q 3169 1828 3169 2138  z M 1381 2969  Q 1594 3256 1914 3420  Q 2234 3584 2584 3584  Q 3122 3584 3439 3221  Q 3756 2859 3756 2241  Q 3756 1734 3570 1259  Q 3384 784 3041 416  Q 2816 172 2522 40  Q 2228 -91 1906 -91  Q 1566 -91 1316 65  Q 1066 222 909 531  L 806 0  L 231 0  L 1178 4863  L 1753 4863  L 1381 2969  z "
               transform="scale(0.015625)" />
          </defs>
          <use
             xlink:href="#DejaVuSans-28"
             transform="translate(0 0.015625)"
             id="use138" />
          <use
             xlink:href="#DejaVuSans-Oblique-61"
             transform="translate(39.013672 0.015625)"
             id="use140" />
          <use
             xlink:href="#DejaVuSans-2c"
             transform="translate(100.292969 0.015625)"
             id="use142" />
          <use
             xlink:href="#DejaVuSans-Oblique-62"
             transform="translate(151.5625 0.015625)"
             id="use144" />
          <use
             xlink:href="#DejaVuSans-29"
             transform="translate(215.039062 0.015625)"
             id="use146" />
        </g>
      </g>
      <g
         id="text_7">
        <!-- x -->
        <g
           transform="translate(373.683448 123.316229) scale(0.2 -0.2)"
           id="g153">
          <use
             xlink:href="#DejaVuSans-78"
             id="use151" />
        </g>
      </g>
      <g
         id="text_8">
        <!-- y -->
        <g
           transform="translate(290.903228 59.411937) scale(0.2 -0.2)"
           id="g158">
          <use
             xlink:href="#DejaVuSans-79"
             id="use156" />
        </g>
      </g>
    </g>
  </g>
  <defs
     id="defs169">
    <clipPath
       id="p31f23741a5">
      <rect
         x="54"
         y="44.695385"
         width="128.769231"
         height="128.769231"
         id="rect163" />
    </clipPath>
    <clipPath
       id="p13dd1afec0">
      <rect
         x="260.030769"
         y="44.695385"
         width="128.769231"
         height="128.769231"
         id="rect166" />
    </clipPath>
  </defs>
  <path
     style="fill:none;stroke:#ff0000;stroke-width:2;stroke-linejoin:bevel;stroke-miterlimit:1;paint-order:stroke markers fill;marker-end:url(#Arrow4)"
     d="m 166.23283,39.938356 c 51.51025,-12.036984 101.4068,1.4e-5 101.4068,1.4e-5"
     id="path308"
     sodipodi:nodetypes="cc" />
  <text
     xml:space="preserve"
     style="font-size:18px;fill:#ff0000;stroke:#ffffff;stroke-width:2;stroke-linejoin:bevel;stroke-miterlimit:1;paint-order:stroke markers fill"
     x="186.24309"
     y="25.169491"
     id="text568"><tspan
       sodipodi:role="line"
       id="tspan566"
       style="fill:#ff0000;stroke:#ffffff;stroke-width:2"
       x="186.24309"
       y="25.169491">Scaling</tspan></text>
</svg>
