<?xml version="1.0" encoding="UTF-8" standalone="no"?>
<svg
   width="432pt"
   height="216pt"
   viewBox="0 0 432 216"
   version="1.1"
   id="svg294"
   sodipodi:docname="simplex-grid-2d-compare.svg"
   inkscape:version="1.2.2 (b0a8486541, 2022-12-01)"
   xmlns:inkscape="http://www.inkscape.org/namespaces/inkscape"
   xmlns:sodipodi="http://sodipodi.sourceforge.net/DTD/sodipodi-0.dtd"
   xmlns:xlink="http://www.w3.org/1999/xlink"
   xmlns="http://www.w3.org/2000/svg"
   xmlns:svg="http://www.w3.org/2000/svg"
   xmlns:rdf="http://www.w3.org/1999/02/22-rdf-syntax-ns#"
   xmlns:cc="http://creativecommons.org/ns#"
   xmlns:dc="http://purl.org/dc/elements/1.1/">
  <sodipodi:namedview
     id="namedview296"
     pagecolor="#ffffff"
     bordercolor="#000000"
     borderopacity="0.25"
     inkscape:showpageshadow="2"
     inkscape:pageopacity="0.0"
     inkscape:pagecheckerboard="0"
     inkscape:deskcolor="#d1d1d1"
     inkscape:document-units="pt"
     showgrid="false"
     inkscape:zoom="1.6388889"
     inkscape:cx="390.81356"
     inkscape:cy="174.81356"
     inkscape:window-width="1415"
     inkscape:window-height="877"
     inkscape:window-x="25"
     inkscape:window-y="0"
     inkscape:window-maximized="1"
     inkscape:current-layer="svg294" />
  <metadata
     id="metadata2">
    <rdf:RDF>
      <cc:Work>
        <dc:type
           rdf:resource="http://purl.org/dc/dcmitype/StillImage" />
        <dc:date>2025-01-24T11:07:34.642710</dc:date>
        <dc:format>image/svg+xml</dc:format>
        <dc:creator>
          <cc:Agent>
            <dc:title>Matplotlib v3.6.3, https://matplotlib.org/</dc:title>
          </cc:Agent>
        </dc:creator>
      </cc:Work>
    </rdf:RDF>
  </metadata>
  <defs
     id="defs6">
    <marker
       style="overflow:visible"
       id="Arrow4"
       refX="0"
       refY="0"
       orient="auto-start-reverse"
       inkscape:stockid="Arrow4"
       markerWidth="5"
       markerHeight="6"
       viewBox="0 0 5 6"
       inkscape:isstock="true"
       inkscape:collect="always"
       preserveAspectRatio="xMidYMid">
      <path
         style="fill:context-stroke;fill-rule:evenodd;stroke:none"
         d="m 1,0 -3,3 h -2 l 3,-3 -3,-3 h 2 z"
         id="path1741" />
    </marker>
    <style
       type="text/css"
       id="style4">*{stroke-linejoin: round; stroke-linecap: butt}</style>
    <clipPath
       id="clipPath2862">
      <path
         clip-rule="nonzero"
         d="M 1,0 H 13.644531 V 14.117188 H 1 Z m 0,0"
         id="path2218" />
    </clipPath>
  </defs>
  <g
     id="figure_1">
    <g
       id="patch_1">
      <path
         d="M 0 216  L 432 216  L 432 0  L 0 0  z "
         style="fill: #ffffff"
         id="path8" />
    </g>
    <g
       id="axes_1">
      <g
         id="patch_2">
        <path
           d="M 54 173.464615  L 182.769231 173.464615  L 182.769231 44.695385  L 54 44.695385  z "
           style="fill: #ffffff"
           id="path11" />
      </g>
      <g
         id="patch_3">
        <path
           d="M 99.989011 127.475604  L 145.978022 127.475604  L 145.978022 81.486593  L 99.989011 127.475604  z "
           clip-path="url(#p08bb1d2630)"
           style="fill: none; stroke: #000000; stroke-linejoin: miter"
           id="path14" />
      </g>
      <g
         id="patch_4">
        <path
           d="M 99.989011 127.475604  L 99.989011 81.486593  L 145.978022 81.486593  L 99.989011 127.475604  z "
           clip-path="url(#p08bb1d2630)"
           style="fill: none; stroke: #000000; stroke-linejoin: miter"
           id="path17" />
      </g>
      <g
         id="patch_5">
        <path
           d="M 54 127.475604  L 182.769231 127.475604  L 54 127.475604  z "
           clip-path="url(#p08bb1d2630)"
           style="fill: none; stroke: #000000; stroke-opacity: 0.5; stroke-linejoin: miter"
           id="path20" />
      </g>
      <g
         id="patch_6">
        <path
           d="M 99.989011 173.464615  L 99.989011 44.695385  L 99.989011 173.464615  z "
           clip-path="url(#p08bb1d2630)"
           style="fill: none; stroke: #000000; stroke-opacity: 0.5; stroke-linejoin: miter"
           id="path23" />
      </g>
      <g
         id="matplotlib.axis_1" />
      <g
         id="matplotlib.axis_2" />
      <g
         id="patch_7">
        <path
           d="M 54 173.464615  L 54 44.695385  "
           style="fill: none; stroke: #000000; stroke-width: 0.8; stroke-linejoin: miter; stroke-linecap: square"
           id="path28" />
      </g>
      <g
         id="patch_8">
        <path
           d="M 182.769231 173.464615  L 182.769231 44.695385  "
           style="fill: none; stroke: #000000; stroke-width: 0.8; stroke-linejoin: miter; stroke-linecap: square"
           id="path31" />
      </g>
      <g
         id="patch_9">
        <path
           d="M 54 173.464615  L 182.769231 173.464615  "
           style="fill: none; stroke: #000000; stroke-width: 0.8; stroke-linejoin: miter; stroke-linecap: square"
           id="path34" />
      </g>
      <g
         id="patch_10">
        <path
           d="M 54 44.695385  L 182.769231 44.695385  "
           style="fill: none; stroke: #000000; stroke-width: 0.8; stroke-linejoin: miter; stroke-linecap: square"
           id="path37" />
      </g>
      <g
         id="text_1">
        <!-- $(0,0)$ -->
        <g
           transform="translate(74.289011 135.074042) scale(0.1 -0.1)"
           id="g56">
          <defs
             id="defs44">
            <path
               id="DejaVuSans-28"
               d="M 1984 4856  Q 1566 4138 1362 3434  Q 1159 2731 1159 2009  Q 1159 1288 1364 580  Q 1569 -128 1984 -844  L 1484 -844  Q 1016 -109 783 600  Q 550 1309 550 2009  Q 550 2706 781 3412  Q 1013 4119 1484 4856  L 1984 4856  z "
               transform="scale(0.015625)" />
            <path
               id="DejaVuSans-30"
               d="M 2034 4250  Q 1547 4250 1301 3770  Q 1056 3291 1056 2328  Q 1056 1369 1301 889  Q 1547 409 2034 409  Q 2525 409 2770 889  Q 3016 1369 3016 2328  Q 3016 3291 2770 3770  Q 2525 4250 2034 4250  z M 2034 4750  Q 2819 4750 3233 4129  Q 3647 3509 3647 2328  Q 3647 1150 3233 529  Q 2819 -91 2034 -91  Q 1250 -91 836 529  Q 422 1150 422 2328  Q 422 3509 836 4129  Q 1250 4750 2034 4750  z "
               transform="scale(0.015625)" />
            <path
               id="DejaVuSans-2c"
               d="M 750 794  L 1409 794  L 1409 256  L 897 -744  L 494 -744  L 750 256  L 750 794  z "
               transform="scale(0.015625)" />
            <path
               id="DejaVuSans-29"
               d="M 513 4856  L 1013 4856  Q 1481 4119 1714 3412  Q 1947 2706 1947 2009  Q 1947 1309 1714 600  Q 1481 -109 1013 -844  L 513 -844  Q 928 -128 1133 580  Q 1338 1288 1338 2009  Q 1338 2731 1133 3434  Q 928 4138 513 4856  z "
               transform="scale(0.015625)" />
          </defs>
          <use
             xlink:href="#DejaVuSans-28"
             transform="translate(0 0.125)"
             id="use46" />
          <use
             xlink:href="#DejaVuSans-30"
             transform="translate(39.013672 0.125)"
             id="use48" />
          <use
             xlink:href="#DejaVuSans-2c"
             transform="translate(102.636719 0.125)"
             id="use50" />
          <use
             xlink:href="#DejaVuSans-30"
             transform="translate(153.90625 0.125)"
             id="use52" />
          <use
             xlink:href="#DejaVuSans-29"
             transform="translate(217.529297 0.125)"
             id="use54" />
        </g>
      </g>
      <g
         id="text_2">
        <!-- $(1,1)$ -->
        <g
           transform="translate(145.978022 79.406906) scale(0.1 -0.1)"
           id="g72">
          <defs
             id="defs60">
            <path
               id="DejaVuSans-31"
               d="M 794 531  L 1825 531  L 1825 4091  L 703 3866  L 703 4441  L 1819 4666  L 2450 4666  L 2450 531  L 3481 531  L 3481 0  L 794 0  L 794 531  z "
               transform="scale(0.015625)" />
          </defs>
          <use
             xlink:href="#DejaVuSans-28"
             transform="translate(0 0.125)"
             id="use62" />
          <use
             xlink:href="#DejaVuSans-31"
             transform="translate(39.013672 0.125)"
             id="use64" />
          <use
             xlink:href="#DejaVuSans-2c"
             transform="translate(102.636719 0.125)"
             id="use66" />
          <use
             xlink:href="#DejaVuSans-31"
             transform="translate(153.90625 0.125)"
             id="use68" />
          <use
             xlink:href="#DejaVuSans-29"
             transform="translate(217.529297 0.125)"
             id="use70" />
        </g>
      </g>
      <g
         id="text_3">
        <!-- $(1,0)$ -->
        <g
           transform="translate(145.978022 135.074042) scale(0.1 -0.1)"
           id="g85">
          <use
             xlink:href="#DejaVuSans-28"
             transform="translate(0 0.125)"
             id="use75" />
          <use
             xlink:href="#DejaVuSans-31"
             transform="translate(39.013672 0.125)"
             id="use77" />
          <use
             xlink:href="#DejaVuSans-2c"
             transform="translate(102.636719 0.125)"
             id="use79" />
          <use
             xlink:href="#DejaVuSans-30"
             transform="translate(153.90625 0.125)"
             id="use81" />
          <use
             xlink:href="#DejaVuSans-29"
             transform="translate(217.529297 0.125)"
             id="use83" />
        </g>
      </g>
      <g
         id="text_4">
        <!-- $(0,1)$ -->
        <g
           transform="translate(74.289011 79.406906) scale(0.1 -0.1)"
           id="g98">
          <use
             xlink:href="#DejaVuSans-28"
             transform="translate(0 0.125)"
             id="use88" />
          <use
             xlink:href="#DejaVuSans-30"
             transform="translate(39.013672 0.125)"
             id="use90" />
          <use
             xlink:href="#DejaVuSans-2c"
             transform="translate(102.636719 0.125)"
             id="use92" />
          <use
             xlink:href="#DejaVuSans-31"
             transform="translate(153.90625 0.125)"
             id="use94" />
          <use
             xlink:href="#DejaVuSans-29"
             transform="translate(217.529297 0.125)"
             id="use96" />
        </g>
      </g>
      <g
         id="text_5">
        <!-- x -->
        <g
           transform="translate(167.652679 123.316229) scale(0.2 -0.2)"
           id="g106">
          <defs
             id="defs102">
            <path
               id="DejaVuSans-78"
               d="M 3513 3500  L 2247 1797  L 3578 0  L 2900 0  L 1881 1375  L 863 0  L 184 0  L 1544 1831  L 300 3500  L 978 3500  L 1906 2253  L 2834 3500  L 3513 3500  z "
               transform="scale(0.015625)" />
          </defs>
          <use
             xlink:href="#DejaVuSans-78"
             id="use104" />
        </g>
      </g>
      <g
         id="text_6">
        <!-- y -->
        <g
           transform="translate(84.872459 59.411937) scale(0.2 -0.2)"
           id="g114">
          <defs
             id="defs110">
            <path
               id="DejaVuSans-79"
               d="M 2059 -325  Q 1816 -950 1584 -1140  Q 1353 -1331 966 -1331  L 506 -1331  L 506 -850  L 844 -850  Q 1081 -850 1212 -737  Q 1344 -625 1503 -206  L 1606 56  L 191 3500  L 800 3500  L 1894 763  L 2988 3500  L 3597 3500  L 2059 -325  z "
               transform="scale(0.015625)" />
          </defs>
          <use
             xlink:href="#DejaVuSans-79"
             id="use112" />
        </g>
      </g>
    </g>
    <g
       id="axes_2">
      <g
         id="patch_11">
        <path
           d="M 260.030769 173.464615  L 388.8 173.464615  L 388.8 44.695385  L 260.030769 44.695385  z "
           style="fill: #ffffff"
           id="path118" />
      </g>
      <g
         id="patch_12">
        <path
           d="M 306.01978 127.475604  L 342.29017 137.194226  L 332.571548 100.923837  L 306.01978 127.475604  z "
           clip-path="url(#peaa838f08c)"
           style="fill: none; stroke: #ff0000; stroke-linejoin: miter"
           id="path121" />
      </g>
      <g
         id="patch_13">
        <path
           d="M 306.01978 127.475604  L 296.301159 91.205215  L 332.571548 100.923837  L 306.01978 127.475604  z "
           clip-path="url(#peaa838f08c)"
           style="fill: none; stroke: #ff0000; stroke-linejoin: miter"
           id="path124" />
      </g>
      <g
         id="patch_14">
        <path
           d="M 260.030769 127.475604  L 388.8 127.475604  L 260.030769 127.475604  z "
           clip-path="url(#peaa838f08c)"
           style="fill: none; stroke: #000000; stroke-opacity: 0.5; stroke-linejoin: miter"
           id="path127" />
      </g>
      <g
         id="patch_15">
        <path
           d="M 306.01978 173.464615  L 306.01978 44.695385  L 306.01978 173.464615  z "
           clip-path="url(#peaa838f08c)"
           style="fill: none; stroke: #000000; stroke-opacity: 0.5; stroke-linejoin: miter"
           id="path130" />
      </g>
      <g
         id="matplotlib.axis_3" />
      <g
         id="matplotlib.axis_4" />
      <g
         id="patch_16">
        <path
           d="M 260.030769 173.464615  L 260.030769 44.695385  "
           style="fill: none; stroke: #000000; stroke-width: 0.8; stroke-linejoin: miter; stroke-linecap: square"
           id="path135" />
      </g>
      <g
         id="patch_17">
        <path
           d="M 388.8 173.464615  L 388.8 44.695385  "
           style="fill: none; stroke: #000000; stroke-width: 0.8; stroke-linejoin: miter; stroke-linecap: square"
           id="path138" />
      </g>
      <g
         id="patch_18">
        <path
           d="M 260.030769 173.464615  L 388.8 173.464615  "
           style="fill: none; stroke: #000000; stroke-width: 0.8; stroke-linejoin: miter; stroke-linecap: square"
           id="path141" />
      </g>
      <g
         id="patch_19">
        <path
           d="M 260.030769 44.695385  L 388.8 44.695385  "
           style="fill: none; stroke: #000000; stroke-width: 0.8; stroke-linejoin: miter; stroke-linecap: square"
           id="path144" />
      </g>
      <g
         id="text_7">
        <!-- $(0,0)$ -->
        <g
           transform="translate(280.31978 135.074042) scale(0.1 -0.1)"
           id="g157">
          <use
             xlink:href="#DejaVuSans-28"
             transform="translate(0 0.125)"
             id="use147" />
          <use
             xlink:href="#DejaVuSans-30"
             transform="translate(39.013672 0.125)"
             id="use149" />
          <use
             xlink:href="#DejaVuSans-2c"
             transform="translate(102.636719 0.125)"
             id="use151" />
          <use
             xlink:href="#DejaVuSans-30"
             transform="translate(153.90625 0.125)"
             id="use153" />
          <use
             xlink:href="#DejaVuSans-29"
             transform="translate(217.529297 0.125)"
             id="use155" />
        </g>
      </g>
      <g
         id="text_8">
        <!-- $\left(\dfrac{1}{\sqrt{3}},\dfrac{1}{\sqrt{3}}\right)$ -->
        <g
           transform="translate(332.571548 90.823837) scale(0.1 -0.1)"
           id="g192">
          <defs
             id="defs164">
            <path
               id="STIXSizeThreeSym-Regular-28"
               d="M 4269 -2214  L 4269 -2522  Q 2835 -1178 2000 838  Q 1165 2854 1165 5350  Q 1165 7878 2019 9990  Q 2874 12102 4269 13222  L 4269 12941  Q 3814 12467 3408 11785  Q 3002 11104 2646 10173  Q 2291 9242 2080 7990  Q 1869 6739 1869 5350  Q 1869 4218 2013 3190  Q 2157 2163 2381 1398  Q 2605 634 2934 -73  Q 3264 -781 3577 -1264  Q 3891 -1747 4269 -2214  z "
               transform="scale(0.015625)" />
            <path
               id="STIXSizeOneSym-Regular-221a"
               d="M 6970 9933  L 3373 -1888  L 3104 -1888  L 1626 2918  Q 1555 3149 1465 3251  Q 1376 3354 1229 3354  Q 1011 3354 794 3181  L 717 3309  L 1766 4115  L 1926 4115  L 3379 -602  L 3405 -602  L 6605 9933  L 6970 9933  z "
               transform="scale(0.015625)" />
            <path
               id="DejaVuSans-33"
               d="M 2597 2516  Q 3050 2419 3304 2112  Q 3559 1806 3559 1356  Q 3559 666 3084 287  Q 2609 -91 1734 -91  Q 1441 -91 1130 -33  Q 819 25 488 141  L 488 750  Q 750 597 1062 519  Q 1375 441 1716 441  Q 2309 441 2620 675  Q 2931 909 2931 1356  Q 2931 1769 2642 2001  Q 2353 2234 1838 2234  L 1294 2234  L 1294 2753  L 1863 2753  Q 2328 2753 2575 2939  Q 2822 3125 2822 3475  Q 2822 3834 2567 4026  Q 2313 4219 1838 4219  Q 1578 4219 1281 4162  Q 984 4106 628 3988  L 628 4550  Q 988 4650 1302 4700  Q 1616 4750 1894 4750  Q 2613 4750 3031 4423  Q 3450 4097 3450 3541  Q 3450 3153 3228 2886  Q 3006 2619 2597 2516  z "
               transform="scale(0.015625)" />
            <path
               id="STIXSizeThreeSym-Regular-29"
               d="M 531 12915  L 531 13222  Q 1965 11872 2800 9869  Q 3635 7866 3635 5350  Q 3635 2835 2777 716  Q 1920 -1402 531 -2522  L 531 -2240  Q 986 -1766 1392 -1084  Q 1798 -403 2153 528  Q 2509 1459 2720 2710  Q 2931 3962 2931 5350  Q 2931 9990 531 12915  z "
               transform="scale(0.015625)" />
          </defs>
          <use
             xlink:href="#STIXSizeThreeSym-Regular-28"
             transform="translate(0 -65.265625) scale(0.882177)"
             id="use166" />
          <use
             xlink:href="#DejaVuSans-31"
             transform="translate(109.152344 44.09375)"
             id="use168" />
          <use
             xlink:href="#STIXSizeOneSym-Regular-221a"
             transform="translate(66.152344 -82.953125) scale(0.578716)"
             id="use170" />
          <use
             xlink:href="#DejaVuSans-33"
             transform="translate(139.809677 -98.625)"
             id="use172" />
          <use
             xlink:href="#DejaVuSans-2c"
             transform="translate(228.432724 0.296875)"
             id="use174" />
          <use
             xlink:href="#DejaVuSans-31"
             transform="translate(322.702255 44.09375)"
             id="use176" />
          <use
             xlink:href="#STIXSizeOneSym-Regular-221a"
             transform="translate(279.702255 -82.953125) scale(0.578716)"
             id="use178" />
          <use
             xlink:href="#DejaVuSans-33"
             transform="translate(353.359589 -98.625)"
             id="use180" />
          <use
             xlink:href="#STIXSizeThreeSym-Regular-29"
             transform="translate(441.982635 -65.265625) scale(0.882177)"
             id="use182" />
          <path
             d="M 66.152344 19.09375  L 66.152344 25.34375  L 215.932724 25.34375  L 215.932724 19.09375  L 66.152344 19.09375  z "
             id="path184" />
          <path
             d="M 127.309677 0.34375  L 127.309677 6.59375  L 215.932724 6.59375  L 215.932724 0.34375  L 127.309677 0.34375  z "
             id="path186" />
          <path
             d="M 279.702255 19.09375  L 279.702255 25.34375  L 429.482635 25.34375  L 429.482635 19.09375  L 279.702255 19.09375  z "
             id="path188" />
          <path
             d="M 340.859589 0.34375  L 340.859589 6.59375  L 429.482635 6.59375  L 429.482635 0.34375  L 340.859589 0.34375  z "
             id="path190" />
        </g>
      </g>
      <g
         id="text_9">
        <!-- $\left(\dfrac{\sqrt{3}+3}{6},\dfrac{\sqrt{3}-3}{6}\right)$ -->
        <g
           transform="translate(342.29017 152.894226) scale(0.1 -0.1)"
           id="g234">
          <defs
             id="defs198">
            <path
               id="DejaVuSans-2b"
               d="M 2944 4013  L 2944 2272  L 4684 2272  L 4684 1741  L 2944 1741  L 2944 0  L 2419 0  L 2419 1741  L 678 1741  L 678 2272  L 2419 2272  L 2419 4013  L 2944 4013  z "
               transform="scale(0.015625)" />
            <path
               id="DejaVuSans-36"
               d="M 2113 2584  Q 1688 2584 1439 2293  Q 1191 2003 1191 1497  Q 1191 994 1439 701  Q 1688 409 2113 409  Q 2538 409 2786 701  Q 3034 994 3034 1497  Q 3034 2003 2786 2293  Q 2538 2584 2113 2584  z M 3366 4563  L 3366 3988  Q 3128 4100 2886 4159  Q 2644 4219 2406 4219  Q 1781 4219 1451 3797  Q 1122 3375 1075 2522  Q 1259 2794 1537 2939  Q 1816 3084 2150 3084  Q 2853 3084 3261 2657  Q 3669 2231 3669 1497  Q 3669 778 3244 343  Q 2819 -91 2113 -91  Q 1303 -91 875 529  Q 447 1150 447 2328  Q 447 3434 972 4092  Q 1497 4750 2381 4750  Q 2619 4750 2861 4703  Q 3103 4656 3366 4563  z "
               transform="scale(0.015625)" />
            <path
               id="DejaVuSans-2212"
               d="M 678 2272  L 4684 2272  L 4684 1741  L 678 1741  L 678 2272  z "
               transform="scale(0.015625)" />
          </defs>
          <use
             xlink:href="#STIXSizeThreeSym-Regular-28"
             transform="translate(0 -27.5625) scale(0.893293)"
             id="use200" />
          <use
             xlink:href="#STIXSizeOneSym-Regular-221a"
             transform="translate(66.996078 61.203125) scale(0.578716)"
             id="use202" />
          <use
             xlink:href="#DejaVuSans-33"
             transform="translate(140.653412 45.53125)"
             id="use204" />
          <use
             xlink:href="#DejaVuSans-2b"
             transform="translate(236.258881 45.5625)"
             id="use206" />
          <use
             xlink:href="#DejaVuSans-33"
             transform="translate(339.530365 45.5625)"
             id="use208" />
          <use
             xlink:href="#DejaVuSans-36"
             transform="translate(202.996078 -61.328125)"
             id="use210" />
          <use
             xlink:href="#DejaVuSans-2c"
             transform="translate(415.653412 0.34375)"
             id="use212" />
          <use
             xlink:href="#STIXSizeOneSym-Regular-221a"
             transform="translate(466.922943 61.203125) scale(0.578716)"
             id="use214" />
          <use
             xlink:href="#DejaVuSans-33"
             transform="translate(540.580276 45.53125)"
             id="use216" />
          <use
             xlink:href="#DejaVuSans-2212"
             transform="translate(636.185745 45.5625)"
             id="use218" />
          <use
             xlink:href="#DejaVuSans-33"
             transform="translate(739.45723 45.5625)"
             id="use220" />
          <use
             xlink:href="#DejaVuSans-36"
             transform="translate(602.922943 -61.328125)"
             id="use222" />
          <use
             xlink:href="#STIXSizeThreeSym-Regular-29"
             transform="translate(815.580276 -27.5625) scale(0.893293)"
             id="use224" />
          <path
             d="M 128.153412 144.5  L 128.153412 150.75  L 216.776459 150.75  L 216.776459 144.5  L 128.153412 144.5  z "
             id="path226" />
          <path
             d="M 66.996078 19.140625  L 66.996078 25.390625  L 403.153412 25.390625  L 403.153412 19.140625  L 66.996078 19.140625  z "
             id="path228" />
          <path
             d="M 528.080276 144.5  L 528.080276 150.75  L 616.703323 150.75  L 616.703323 144.5  L 528.080276 144.5  z "
             id="path230" />
          <path
             d="M 466.922943 19.140625  L 466.922943 25.390625  L 803.080276 25.390625  L 803.080276 19.140625  L 466.922943 19.140625  z "
             id="path232" />
        </g>
      </g>
      <g
         id="text_10">
        <!-- $\left(\dfrac{\sqrt{3}-3}{6},\dfrac{\sqrt{3}+3}{6}\right)$ -->
        <g
           transform="translate(208.001159 84.805215) scale(0.1 -0.1)"
           id="g271">
          <use
             xlink:href="#STIXSizeThreeSym-Regular-28"
             transform="translate(0 -27.5625) scale(0.893293)"
             id="use237" />
          <use
             xlink:href="#STIXSizeOneSym-Regular-221a"
             transform="translate(66.996078 61.203125) scale(0.578716)"
             id="use239" />
          <use
             xlink:href="#DejaVuSans-33"
             transform="translate(140.653412 45.53125)"
             id="use241" />
          <use
             xlink:href="#DejaVuSans-2212"
             transform="translate(236.258881 45.5625)"
             id="use243" />
          <use
             xlink:href="#DejaVuSans-33"
             transform="translate(339.530365 45.5625)"
             id="use245" />
          <use
             xlink:href="#DejaVuSans-36"
             transform="translate(202.996078 -61.328125)"
             id="use247" />
          <use
             xlink:href="#DejaVuSans-2c"
             transform="translate(415.653412 0.34375)"
             id="use249" />
          <use
             xlink:href="#STIXSizeOneSym-Regular-221a"
             transform="translate(466.922943 61.203125) scale(0.578716)"
             id="use251" />
          <use
             xlink:href="#DejaVuSans-33"
             transform="translate(540.580276 45.53125)"
             id="use253" />
          <use
             xlink:href="#DejaVuSans-2b"
             transform="translate(636.185745 45.5625)"
             id="use255" />
          <use
             xlink:href="#DejaVuSans-33"
             transform="translate(739.45723 45.5625)"
             id="use257" />
          <use
             xlink:href="#DejaVuSans-36"
             transform="translate(602.922943 -61.328125)"
             id="use259" />
          <use
             xlink:href="#STIXSizeThreeSym-Regular-29"
             transform="translate(815.580276 -27.5625) scale(0.893293)"
             id="use261" />
          <path
             d="M 128.153412 144.5  L 128.153412 150.75  L 216.776459 150.75  L 216.776459 144.5  L 128.153412 144.5  z "
             id="path263" />
          <path
             d="M 66.996078 19.140625  L 66.996078 25.390625  L 403.153412 25.390625  L 403.153412 19.140625  L 66.996078 19.140625  z "
             id="path265" />
          <path
             d="M 528.080276 144.5  L 528.080276 150.75  L 616.703323 150.75  L 616.703323 144.5  L 528.080276 144.5  z "
             id="path267" />
          <path
             d="M 466.922943 19.140625  L 466.922943 25.390625  L 803.080276 25.390625  L 803.080276 19.140625  L 466.922943 19.140625  z "
             id="path269" />
        </g>
      </g>
      <g
         id="text_11">
        <!-- x -->
        <g
           transform="translate(373.683448 123.316229) scale(0.2 -0.2)"
           id="g276">
          <use
             xlink:href="#DejaVuSans-78"
             id="use274" />
        </g>
      </g>
      <g
         id="text_12">
        <!-- y -->
        <g
           transform="translate(290.903228 59.411937) scale(0.2 -0.2)"
           id="g281">
          <use
             xlink:href="#DejaVuSans-79"
             id="use279" />
        </g>
      </g>
    </g>
  </g>
  <defs
     id="defs292">
    <clipPath
       id="p08bb1d2630">
      <rect
         x="54"
         y="44.695385"
         width="128.769231"
         height="128.769231"
         id="rect286" />
    </clipPath>
    <clipPath
       id="peaa838f08c">
      <rect
         x="260.030769"
         y="44.695385"
         width="128.769231"
         height="128.769231"
         id="rect289" />
    </clipPath>
  </defs>
  <path
     style="fill:none;stroke:#ff0000;stroke-width:2;stroke-linejoin:bevel;stroke-miterlimit:1;stroke-dasharray:none;marker-end:url(#Arrow4);paint-order:stroke markers fill"
     d="m 154.62888,41.338974 c 68.35765,-22.298925 117.99599,0.443773 117.99599,0.443773"
     id="path608"
     sodipodi:nodetypes="cc" />
  <g
     inkscape:label=""
     transform="translate(213.06897,13.125411)"
     id="g1830"
     style="fill:#ff0000;stroke:none">
    <g
       clip-path="url(#clipPath2862)"
       id="g16"
       transform="translate(-1.04688,0.427875)"
       style="fill:#ff0000;stroke:none">
      <g
         fill="#000000"
         fill-opacity="1"
         id="g14"
         style="fill:#ff0000;stroke:none">
        <g
           id="use12"
           transform="translate(0,14.119)"
           style="fill:#ff0000;stroke:none">
          <path
             d="m 13.109375,-14.359375 c 0,-0.1875 -0.140625,-0.1875 -0.171875,-0.1875 -0.09375,0 -0.109375,0.03125 -0.359375,0.328125 -0.125,0.15625 -0.96875,1.21875 -0.984375,1.25 -0.6875,-1.34375 -2.046875,-1.578125 -2.921875,-1.578125 -2.625,0 -5,2.40625 -5,4.734375 0,1.546875 0.9375,2.453125 1.953125,2.8125 0.21875,0.078125 1.4375,0.40625 2.0625,0.5625 1.046875,0.28125 1.3125,0.359375 1.75,0.8125 0.078125,0.109375 0.5,0.578125 0.5,1.5625 0,1.921875 -1.78125,3.890625 -3.84375,3.890625 -1.6875,0 -3.578125,-0.71875 -3.578125,-3.03125 0,-0.390625 0.09375,-0.890625 0.15625,-1.09375 0,-0.0625 0.015625,-0.171875 0.015625,-0.203125 0,-0.078125 -0.046875,-0.1875 -0.203125,-0.1875 -0.1875,0 -0.21875,0.046875 -0.296875,0.390625 L 1.140625,-0.0625 c 0,0.015625 -0.09375,0.296875 -0.09375,0.3125 0,0.1875 0.171875,0.1875 0.21875,0.1875 0.078125,0 0.09375,-0.03125 0.34375,-0.328125 l 0.953125,-1.25 c 0.5,0.75 1.5625,1.578125 3.484375,1.578125 2.671875,0 5.109375,-2.578125 5.109375,-5.171875 0,-0.859375 -0.203125,-1.625 -1,-2.390625 -0.421875,-0.4375 -0.796875,-0.53125 -2.703125,-1.03125 -1.375,-0.375 -1.5625,-0.4375 -1.9375,-0.765625 -0.34375,-0.359375 -0.625,-0.84375 -0.625,-1.546875 0,-1.734375 1.765625,-3.515625 3.71875,-3.515625 2.03125,0 2.984375,1.234375 2.984375,3.203125 0,0.53125 -0.109375,1.09375 -0.109375,1.171875 0,0.1875 0.171875,0.1875 0.234375,0.1875 0.171875,0 0.203125,-0.0625 0.28125,-0.390625 z m 0,0"
             id="path22"
             style="fill:#ff0000;stroke:none" />
        </g>
      </g>
    </g>
  </g>
</svg>
