<?xml version="1.0" encoding="UTF-8" standalone="no"?>
<svg
   width="432pt"
   height="216pt"
   viewBox="0 0 432 216"
   version="1.1"
   id="svg432"
   sodipodi:docname="simplex-grid-2d-compare-T.svg"
   inkscape:version="1.2.2 (b0a8486541, 2022-12-01)"
   xmlns:inkscape="http://www.inkscape.org/namespaces/inkscape"
   xmlns:sodipodi="http://sodipodi.sourceforge.net/DTD/sodipodi-0.dtd"
   xmlns:xlink="http://www.w3.org/1999/xlink"
   xmlns="http://www.w3.org/2000/svg"
   xmlns:svg="http://www.w3.org/2000/svg"
   xmlns:rdf="http://www.w3.org/1999/02/22-rdf-syntax-ns#"
   xmlns:cc="http://creativecommons.org/ns#"
   xmlns:dc="http://purl.org/dc/elements/1.1/">
  <sodipodi:namedview
     id="namedview434"
     pagecolor="#ffffff"
     bordercolor="#000000"
     borderopacity="0.25"
     inkscape:showpageshadow="2"
     inkscape:pageopacity="0.0"
     inkscape:pagecheckerboard="0"
     inkscape:deskcolor="#d1d1d1"
     inkscape:document-units="pt"
     showgrid="false"
     inkscape:zoom="1.6388889"
     inkscape:cx="295.01695"
     inkscape:cy="191.89831"
     inkscape:window-width="1415"
     inkscape:window-height="877"
     inkscape:window-x="25"
     inkscape:window-y="0"
     inkscape:window-maximized="1"
     inkscape:current-layer="svg432" />
  <metadata
     id="metadata2">
    <rdf:RDF>
      <cc:Work>
        <dc:type
           rdf:resource="http://purl.org/dc/dcmitype/StillImage" />
        <dc:date>2025-01-24T20:07:54.075523</dc:date>
        <dc:format>image/svg+xml</dc:format>
        <dc:creator>
          <cc:Agent>
            <dc:title>Matplotlib v3.6.3, https://matplotlib.org/</dc:title>
          </cc:Agent>
        </dc:creator>
      </cc:Work>
    </rdf:RDF>
  </metadata>
  <defs
     id="defs6">
    <marker
       style="overflow:visible"
       id="Arrow4"
       refX="0"
       refY="0"
       orient="auto-start-reverse"
       inkscape:stockid="Arrow4"
       markerWidth="5"
       markerHeight="6"
       viewBox="0 0 5 6"
       inkscape:isstock="true"
       inkscape:collect="always"
       preserveAspectRatio="xMidYMid">
      <path
         style="fill:context-stroke;fill-rule:evenodd;stroke:none"
         d="m 1,0 -3,3 h -2 l 3,-3 -3,-3 h 2 z"
         id="path1741" />
    </marker>
    <style
       type="text/css"
       id="style4">*{stroke-linejoin: round; stroke-linecap: butt}</style>
    <clipPath
       id="clipPath5245">
      <path
         clip-rule="nonzero"
         d="M 0,0 H 17.597656 V 16.9375 H 0 Z m 0,0"
         id="path3355" />
    </clipPath>
  </defs>
  <g
     id="figure_1">
    <g
       id="patch_1">
      <path
         d="M 0 216  L 432 216  L 432 0  L 0 0  z "
         style="fill: #ffffff"
         id="path8" />
    </g>
    <g
       id="axes_1">
      <g
         id="patch_2">
        <path
           d="M 54 173.464615  L 182.769231 173.464615  L 182.769231 44.695385  L 54 44.695385  z "
           style="fill: #ffffff"
           id="path11" />
      </g>
      <g
         id="patch_3">
        <path
           d="M 86.192308 141.272308  L 102.288462 141.272308  L 102.288462 125.176154  L 86.192308 141.272308  z "
           clip-path="url(#pdfa50adcb0)"
           style="fill: none; stroke: #000000; stroke-linejoin: miter"
           id="path14" />
      </g>
      <g
         id="patch_4">
        <path
           d="M 86.192308 141.272308  L 86.192308 125.176154  L 102.288462 125.176154  L 86.192308 141.272308  z "
           clip-path="url(#pdfa50adcb0)"
           style="fill: none; stroke: #000000; stroke-linejoin: miter"
           id="path17" />
      </g>
      <g
         id="patch_5">
        <path
           d="M 102.288462 141.272308  L 118.384615 141.272308  L 118.384615 125.176154  L 102.288462 141.272308  z "
           clip-path="url(#pdfa50adcb0)"
           style="fill: none; stroke: #000000; stroke-linejoin: miter"
           id="path20" />
      </g>
      <g
         id="patch_6">
        <path
           d="M 102.288462 141.272308  L 102.288462 125.176154  L 118.384615 125.176154  L 102.288462 141.272308  z "
           clip-path="url(#pdfa50adcb0)"
           style="fill: none; stroke: #000000; stroke-linejoin: miter"
           id="path23" />
      </g>
      <g
         id="patch_7">
        <path
           d="M 118.384615 141.272308  L 134.480769 141.272308  L 134.480769 125.176154  L 118.384615 141.272308  z "
           clip-path="url(#pdfa50adcb0)"
           style="fill: none; stroke: #000000; stroke-linejoin: miter"
           id="path26" />
      </g>
      <g
         id="patch_8">
        <path
           d="M 118.384615 141.272308  L 118.384615 125.176154  L 134.480769 125.176154  L 118.384615 141.272308  z "
           clip-path="url(#pdfa50adcb0)"
           style="fill: none; stroke: #000000; stroke-linejoin: miter"
           id="path29" />
      </g>
      <g
         id="patch_9">
        <path
           d="M 134.480769 141.272308  L 150.576923 141.272308  L 150.576923 125.176154  L 134.480769 141.272308  z "
           clip-path="url(#pdfa50adcb0)"
           style="fill: none; stroke: #000000; stroke-linejoin: miter"
           id="path32" />
      </g>
      <g
         id="patch_10">
        <path
           d="M 134.480769 141.272308  L 134.480769 125.176154  L 150.576923 125.176154  L 134.480769 141.272308  z "
           clip-path="url(#pdfa50adcb0)"
           style="fill: none; stroke: #000000; stroke-linejoin: miter"
           id="path35" />
      </g>
      <g
         id="patch_11">
        <path
           d="M 150.576923 141.272308  L 166.673077 141.272308  L 166.673077 125.176154  L 150.576923 141.272308  z "
           clip-path="url(#pdfa50adcb0)"
           style="fill: none; stroke: #000000; stroke-linejoin: miter"
           id="path38" />
      </g>
      <g
         id="patch_12">
        <path
           d="M 150.576923 141.272308  L 150.576923 125.176154  L 166.673077 125.176154  L 150.576923 141.272308  z "
           clip-path="url(#pdfa50adcb0)"
           style="fill: none; stroke: #000000; stroke-linejoin: miter"
           id="path41" />
      </g>
      <g
         id="patch_13">
        <path
           d="M 86.192308 125.176154  L 102.288462 125.176154  L 102.288462 109.08  L 86.192308 125.176154  z "
           clip-path="url(#pdfa50adcb0)"
           style="fill: none; stroke: #000000; stroke-linejoin: miter"
           id="path44" />
      </g>
      <g
         id="patch_14">
        <path
           d="M 86.192308 125.176154  L 86.192308 109.08  L 102.288462 109.08  L 86.192308 125.176154  z "
           clip-path="url(#pdfa50adcb0)"
           style="fill: none; stroke: #000000; stroke-linejoin: miter"
           id="path47" />
      </g>
      <g
         id="patch_15">
        <path
           d="M 102.288462 125.176154  L 118.384615 125.176154  L 118.384615 109.08  L 102.288462 125.176154  z "
           clip-path="url(#pdfa50adcb0)"
           style="fill: none; stroke: #000000; stroke-linejoin: miter"
           id="path50" />
      </g>
      <g
         id="patch_16">
        <path
           d="M 102.288462 125.176154  L 102.288462 109.08  L 118.384615 109.08  L 102.288462 125.176154  z "
           clip-path="url(#pdfa50adcb0)"
           style="fill: none; stroke: #000000; stroke-linejoin: miter"
           id="path53" />
      </g>
      <g
         id="patch_17">
        <path
           d="M 118.384615 125.176154  L 134.480769 125.176154  L 134.480769 109.08  L 118.384615 125.176154  z "
           clip-path="url(#pdfa50adcb0)"
           style="fill: none; stroke: #000000; stroke-linejoin: miter"
           id="path56" />
      </g>
      <g
         id="patch_18">
        <path
           d="M 118.384615 125.176154  L 118.384615 109.08  L 134.480769 109.08  L 118.384615 125.176154  z "
           clip-path="url(#pdfa50adcb0)"
           style="fill: none; stroke: #000000; stroke-linejoin: miter"
           id="path59" />
      </g>
      <g
         id="patch_19">
        <path
           d="M 134.480769 125.176154  L 150.576923 125.176154  L 150.576923 109.08  L 134.480769 125.176154  z "
           clip-path="url(#pdfa50adcb0)"
           style="fill: none; stroke: #000000; stroke-linejoin: miter"
           id="path62" />
      </g>
      <g
         id="patch_20">
        <path
           d="M 134.480769 125.176154  L 134.480769 109.08  L 150.576923 109.08  L 134.480769 125.176154  z "
           clip-path="url(#pdfa50adcb0)"
           style="fill: none; stroke: #000000; stroke-linejoin: miter"
           id="path65" />
      </g>
      <g
         id="patch_21">
        <path
           d="M 150.576923 125.176154  L 166.673077 125.176154  L 166.673077 109.08  L 150.576923 125.176154  z "
           clip-path="url(#pdfa50adcb0)"
           style="fill: none; stroke: #000000; stroke-linejoin: miter"
           id="path68" />
      </g>
      <g
         id="patch_22">
        <path
           d="M 150.576923 125.176154  L 150.576923 109.08  L 166.673077 109.08  L 150.576923 125.176154  z "
           clip-path="url(#pdfa50adcb0)"
           style="fill: none; stroke: #000000; stroke-linejoin: miter"
           id="path71" />
      </g>
      <g
         id="patch_23">
        <path
           d="M 86.192308 109.08  L 102.288462 109.08  L 102.288462 92.983846  L 86.192308 109.08  z "
           clip-path="url(#pdfa50adcb0)"
           style="fill: none; stroke: #000000; stroke-linejoin: miter"
           id="path74" />
      </g>
      <g
         id="patch_24">
        <path
           d="M 86.192308 109.08  L 86.192308 92.983846  L 102.288462 92.983846  L 86.192308 109.08  z "
           clip-path="url(#pdfa50adcb0)"
           style="fill: none; stroke: #000000; stroke-linejoin: miter"
           id="path77" />
      </g>
      <g
         id="patch_25">
        <path
           d="M 102.288462 109.08  L 118.384615 109.08  L 118.384615 92.983846  L 102.288462 109.08  z "
           clip-path="url(#pdfa50adcb0)"
           style="fill: none; stroke: #000000; stroke-linejoin: miter"
           id="path80" />
      </g>
      <g
         id="patch_26">
        <path
           d="M 102.288462 109.08  L 102.288462 92.983846  L 118.384615 92.983846  L 102.288462 109.08  z "
           clip-path="url(#pdfa50adcb0)"
           style="fill: none; stroke: #000000; stroke-linejoin: miter"
           id="path83" />
      </g>
      <g
         id="patch_27">
        <path
           d="M 118.384615 109.08  L 134.480769 109.08  L 134.480769 92.983846  L 118.384615 109.08  z "
           clip-path="url(#pdfa50adcb0)"
           style="fill: none; stroke: #000000; stroke-linejoin: miter"
           id="path86" />
      </g>
      <g
         id="patch_28">
        <path
           d="M 118.384615 109.08  L 118.384615 92.983846  L 134.480769 92.983846  L 118.384615 109.08  z "
           clip-path="url(#pdfa50adcb0)"
           style="fill: none; stroke: #000000; stroke-linejoin: miter"
           id="path89" />
      </g>
      <g
         id="patch_29">
        <path
           d="M 134.480769 109.08  L 150.576923 109.08  L 150.576923 92.983846  L 134.480769 109.08  z "
           clip-path="url(#pdfa50adcb0)"
           style="fill: none; stroke: #000000; stroke-linejoin: miter"
           id="path92" />
      </g>
      <g
         id="patch_30">
        <path
           d="M 134.480769 109.08  L 134.480769 92.983846  L 150.576923 92.983846  L 134.480769 109.08  z "
           clip-path="url(#pdfa50adcb0)"
           style="fill: none; stroke: #000000; stroke-linejoin: miter"
           id="path95" />
      </g>
      <g
         id="patch_31">
        <path
           d="M 150.576923 109.08  L 166.673077 109.08  L 166.673077 92.983846  L 150.576923 109.08  z "
           clip-path="url(#pdfa50adcb0)"
           style="fill: none; stroke: #000000; stroke-linejoin: miter"
           id="path98" />
      </g>
      <g
         id="patch_32">
        <path
           d="M 150.576923 109.08  L 150.576923 92.983846  L 166.673077 92.983846  L 150.576923 109.08  z "
           clip-path="url(#pdfa50adcb0)"
           style="fill: none; stroke: #000000; stroke-linejoin: miter"
           id="path101" />
      </g>
      <g
         id="patch_33">
        <path
           d="M 86.192308 92.983846  L 102.288462 92.983846  L 102.288462 76.887692  L 86.192308 92.983846  z "
           clip-path="url(#pdfa50adcb0)"
           style="fill: none; stroke: #000000; stroke-linejoin: miter"
           id="path104" />
      </g>
      <g
         id="patch_34">
        <path
           d="M 86.192308 92.983846  L 86.192308 76.887692  L 102.288462 76.887692  L 86.192308 92.983846  z "
           clip-path="url(#pdfa50adcb0)"
           style="fill: none; stroke: #000000; stroke-linejoin: miter"
           id="path107" />
      </g>
      <g
         id="patch_35">
        <path
           d="M 102.288462 92.983846  L 118.384615 92.983846  L 118.384615 76.887692  L 102.288462 92.983846  z "
           clip-path="url(#pdfa50adcb0)"
           style="fill: none; stroke: #000000; stroke-linejoin: miter"
           id="path110" />
      </g>
      <g
         id="patch_36">
        <path
           d="M 102.288462 92.983846  L 102.288462 76.887692  L 118.384615 76.887692  L 102.288462 92.983846  z "
           clip-path="url(#pdfa50adcb0)"
           style="fill: none; stroke: #000000; stroke-linejoin: miter"
           id="path113" />
      </g>
      <g
         id="patch_37">
        <path
           d="M 118.384615 92.983846  L 134.480769 92.983846  L 134.480769 76.887692  L 118.384615 92.983846  z "
           clip-path="url(#pdfa50adcb0)"
           style="fill: none; stroke: #000000; stroke-linejoin: miter"
           id="path116" />
      </g>
      <g
         id="patch_38">
        <path
           d="M 118.384615 92.983846  L 118.384615 76.887692  L 134.480769 76.887692  L 118.384615 92.983846  z "
           clip-path="url(#pdfa50adcb0)"
           style="fill: none; stroke: #000000; stroke-linejoin: miter"
           id="path119" />
      </g>
      <g
         id="patch_39">
        <path
           d="M 134.480769 92.983846  L 150.576923 92.983846  L 150.576923 76.887692  L 134.480769 92.983846  z "
           clip-path="url(#pdfa50adcb0)"
           style="fill: none; stroke: #000000; stroke-linejoin: miter"
           id="path122" />
      </g>
      <g
         id="patch_40">
        <path
           d="M 134.480769 92.983846  L 134.480769 76.887692  L 150.576923 76.887692  L 134.480769 92.983846  z "
           clip-path="url(#pdfa50adcb0)"
           style="fill: none; stroke: #000000; stroke-linejoin: miter"
           id="path125" />
      </g>
      <g
         id="patch_41">
        <path
           d="M 150.576923 92.983846  L 166.673077 92.983846  L 166.673077 76.887692  L 150.576923 92.983846  z "
           clip-path="url(#pdfa50adcb0)"
           style="fill: none; stroke: #000000; stroke-linejoin: miter"
           id="path128" />
      </g>
      <g
         id="patch_42">
        <path
           d="M 150.576923 92.983846  L 150.576923 76.887692  L 166.673077 76.887692  L 150.576923 92.983846  z "
           clip-path="url(#pdfa50adcb0)"
           style="fill: none; stroke: #000000; stroke-linejoin: miter"
           id="path131" />
      </g>
      <g
         id="patch_43">
        <path
           d="M 86.192308 76.887692  L 102.288462 76.887692  L 102.288462 60.791538  L 86.192308 76.887692  z "
           clip-path="url(#pdfa50adcb0)"
           style="fill: none; stroke: #000000; stroke-linejoin: miter"
           id="path134" />
      </g>
      <g
         id="patch_44">
        <path
           d="M 86.192308 76.887692  L 86.192308 60.791538  L 102.288462 60.791538  L 86.192308 76.887692  z "
           clip-path="url(#pdfa50adcb0)"
           style="fill: none; stroke: #000000; stroke-linejoin: miter"
           id="path137" />
      </g>
      <g
         id="patch_45">
        <path
           d="M 102.288462 76.887692  L 118.384615 76.887692  L 118.384615 60.791538  L 102.288462 76.887692  z "
           clip-path="url(#pdfa50adcb0)"
           style="fill: none; stroke: #000000; stroke-linejoin: miter"
           id="path140" />
      </g>
      <g
         id="patch_46">
        <path
           d="M 102.288462 76.887692  L 102.288462 60.791538  L 118.384615 60.791538  L 102.288462 76.887692  z "
           clip-path="url(#pdfa50adcb0)"
           style="fill: none; stroke: #000000; stroke-linejoin: miter"
           id="path143" />
      </g>
      <g
         id="patch_47">
        <path
           d="M 118.384615 76.887692  L 134.480769 76.887692  L 134.480769 60.791538  L 118.384615 76.887692  z "
           clip-path="url(#pdfa50adcb0)"
           style="fill: none; stroke: #000000; stroke-linejoin: miter"
           id="path146" />
      </g>
      <g
         id="patch_48">
        <path
           d="M 118.384615 76.887692  L 118.384615 60.791538  L 134.480769 60.791538  L 118.384615 76.887692  z "
           clip-path="url(#pdfa50adcb0)"
           style="fill: none; stroke: #000000; stroke-linejoin: miter"
           id="path149" />
      </g>
      <g
         id="patch_49">
        <path
           d="M 134.480769 76.887692  L 150.576923 76.887692  L 150.576923 60.791538  L 134.480769 76.887692  z "
           clip-path="url(#pdfa50adcb0)"
           style="fill: none; stroke: #000000; stroke-linejoin: miter"
           id="path152" />
      </g>
      <g
         id="patch_50">
        <path
           d="M 134.480769 76.887692  L 134.480769 60.791538  L 150.576923 60.791538  L 134.480769 76.887692  z "
           clip-path="url(#pdfa50adcb0)"
           style="fill: none; stroke: #000000; stroke-linejoin: miter"
           id="path155" />
      </g>
      <g
         id="patch_51">
        <path
           d="M 150.576923 76.887692  L 166.673077 76.887692  L 166.673077 60.791538  L 150.576923 76.887692  z "
           clip-path="url(#pdfa50adcb0)"
           style="fill: none; stroke: #000000; stroke-linejoin: miter"
           id="path158" />
      </g>
      <g
         id="patch_52">
        <path
           d="M 150.576923 76.887692  L 150.576923 60.791538  L 166.673077 60.791538  L 150.576923 76.887692  z "
           clip-path="url(#pdfa50adcb0)"
           style="fill: none; stroke: #000000; stroke-linejoin: miter"
           id="path161" />
      </g>
      <g
         id="patch_53">
        <path
           d="M 134.480769 109.08  L 150.576923 109.08  L 150.576923 92.983846  z "
           clip-path="url(#pdfa50adcb0)"
           style="fill-opacity: 0.5; stroke: #000000; stroke-linejoin: miter"
           id="path164" />
      </g>
      <g
         id="patch_54">
        <path
           d="M 54 141.272308  L 182.769231 141.272308  L 54 141.272308  z "
           clip-path="url(#pdfa50adcb0)"
           style="fill: none; stroke: #000000; stroke-opacity: 0.5; stroke-linejoin: miter"
           id="path167" />
      </g>
      <g
         id="patch_55">
        <path
           d="M 86.192308 173.464615  L 86.192308 44.695385  L 86.192308 173.464615  z "
           clip-path="url(#pdfa50adcb0)"
           style="fill: none; stroke: #000000; stroke-opacity: 0.5; stroke-linejoin: miter"
           id="path170" />
      </g>
      <g
         id="matplotlib.axis_1" />
      <g
         id="matplotlib.axis_2" />
      <g
         id="patch_56">
        <path
           d="M 54 173.464615  L 54 44.695385  "
           style="fill: none; stroke: #000000; stroke-width: 0.8; stroke-linejoin: miter; stroke-linecap: square"
           id="path175" />
      </g>
      <g
         id="patch_57">
        <path
           d="M 182.769231 173.464615  L 182.769231 44.695385  "
           style="fill: none; stroke: #000000; stroke-width: 0.8; stroke-linejoin: miter; stroke-linecap: square"
           id="path178" />
      </g>
      <g
         id="patch_58">
        <path
           d="M 54 173.464615  L 182.769231 173.464615  "
           style="fill: none; stroke: #000000; stroke-width: 0.8; stroke-linejoin: miter; stroke-linecap: square"
           id="path181" />
      </g>
      <g
         id="patch_59">
        <path
           d="M 54 44.695385  L 182.769231 44.695385  "
           style="fill: none; stroke: #000000; stroke-width: 0.8; stroke-linejoin: miter; stroke-linecap: square"
           id="path184" />
      </g>
      <g
         id="text_1">
        <!-- $(0,0)$ -->
        <g
           transform="translate(60.492308 148.870745) scale(0.1 -0.1)"
           id="g203">
          <defs
             id="defs191">
            <path
               id="DejaVuSans-28"
               d="M 1984 4856  Q 1566 4138 1362 3434  Q 1159 2731 1159 2009  Q 1159 1288 1364 580  Q 1569 -128 1984 -844  L 1484 -844  Q 1016 -109 783 600  Q 550 1309 550 2009  Q 550 2706 781 3412  Q 1013 4119 1484 4856  L 1984 4856  z "
               transform="scale(0.015625)" />
            <path
               id="DejaVuSans-30"
               d="M 2034 4250  Q 1547 4250 1301 3770  Q 1056 3291 1056 2328  Q 1056 1369 1301 889  Q 1547 409 2034 409  Q 2525 409 2770 889  Q 3016 1369 3016 2328  Q 3016 3291 2770 3770  Q 2525 4250 2034 4250  z M 2034 4750  Q 2819 4750 3233 4129  Q 3647 3509 3647 2328  Q 3647 1150 3233 529  Q 2819 -91 2034 -91  Q 1250 -91 836 529  Q 422 1150 422 2328  Q 422 3509 836 4129  Q 1250 4750 2034 4750  z "
               transform="scale(0.015625)" />
            <path
               id="DejaVuSans-2c"
               d="M 750 794  L 1409 794  L 1409 256  L 897 -744  L 494 -744  L 750 256  L 750 794  z "
               transform="scale(0.015625)" />
            <path
               id="DejaVuSans-29"
               d="M 513 4856  L 1013 4856  Q 1481 4119 1714 3412  Q 1947 2706 1947 2009  Q 1947 1309 1714 600  Q 1481 -109 1013 -844  L 513 -844  Q 928 -128 1133 580  Q 1338 1288 1338 2009  Q 1338 2731 1133 3434  Q 928 4138 513 4856  z "
               transform="scale(0.015625)" />
          </defs>
          <use
             xlink:href="#DejaVuSans-28"
             transform="translate(0 0.125)"
             id="use193" />
          <use
             xlink:href="#DejaVuSans-30"
             transform="translate(39.013672 0.125)"
             id="use195" />
          <use
             xlink:href="#DejaVuSans-2c"
             transform="translate(102.636719 0.125)"
             id="use197" />
          <use
             xlink:href="#DejaVuSans-30"
             transform="translate(153.90625 0.125)"
             id="use199" />
          <use
             xlink:href="#DejaVuSans-29"
             transform="translate(217.529297 0.125)"
             id="use201" />
        </g>
      </g>
      <g
         id="text_2">
        <!-- x -->
        <g
           transform="translate(168.802404 137.112933) scale(0.2 -0.2)"
           id="g211">
          <defs
             id="defs207">
            <path
               id="DejaVuSans-78"
               d="M 3513 3500  L 2247 1797  L 3578 0  L 2900 0  L 1881 1375  L 863 0  L 184 0  L 1544 1831  L 300 3500  L 978 3500  L 1906 2253  L 2834 3500  L 3513 3500  z "
               transform="scale(0.015625)" />
          </defs>
          <use
             xlink:href="#DejaVuSans-78"
             id="use209" />
        </g>
      </g>
      <g
         id="text_3">
        <!-- y -->
        <g
           transform="translate(72.225481 58.262212) scale(0.2 -0.2)"
           id="g219">
          <defs
             id="defs215">
            <path
               id="DejaVuSans-79"
               d="M 2059 -325  Q 1816 -950 1584 -1140  Q 1353 -1331 966 -1331  L 506 -1331  L 506 -850  L 844 -850  Q 1081 -850 1212 -737  Q 1344 -625 1503 -206  L 1606 56  L 191 3500  L 800 3500  L 1894 763  L 2988 3500  L 3597 3500  L 2059 -325  z "
               transform="scale(0.015625)" />
          </defs>
          <use
             xlink:href="#DejaVuSans-79"
             id="use217" />
        </g>
      </g>
    </g>
    <g
       id="axes_2">
      <g
         id="patch_60">
        <path
           d="M 260.030769 173.464615  L 388.8 173.464615  L 388.8 44.695385  L 260.030769 44.695385  z "
           style="fill: #ffffff"
           id="path223" />
      </g>
      <g
         id="patch_61">
        <path
           d="M 292.223077 141.272308  L 304.917713 144.673825  L 301.516196 131.979189  L 292.223077 141.272308  z "
           clip-path="url(#pbe1eecd1f6)"
           style="fill: none; stroke: #ff0000; stroke-linejoin: miter"
           id="path226" />
      </g>
      <g
         id="patch_62">
        <path
           d="M 292.223077 141.272308  L 288.821559 128.577671  L 301.516196 131.979189  L 292.223077 141.272308  z "
           clip-path="url(#pbe1eecd1f6)"
           style="fill: none; stroke: #ff0000; stroke-linejoin: miter"
           id="path229" />
      </g>
      <g
         id="patch_63">
        <path
           d="M 304.917713 144.673825  L 317.61235 148.075343  L 314.210832 135.380706  L 304.917713 144.673825  z "
           clip-path="url(#pbe1eecd1f6)"
           style="fill: none; stroke: #ff0000; stroke-linejoin: miter"
           id="path232" />
      </g>
      <g
         id="patch_64">
        <path
           d="M 304.917713 144.673825  L 301.516196 131.979189  L 314.210832 135.380706  L 304.917713 144.673825  z "
           clip-path="url(#pbe1eecd1f6)"
           style="fill: none; stroke: #ff0000; stroke-linejoin: miter"
           id="path235" />
      </g>
      <g
         id="patch_65">
        <path
           d="M 317.61235 148.075343  L 330.306986 151.47686  L 326.905468 138.782224  L 317.61235 148.075343  z "
           clip-path="url(#pbe1eecd1f6)"
           style="fill: none; stroke: #ff0000; stroke-linejoin: miter"
           id="path238" />
      </g>
      <g
         id="patch_66">
        <path
           d="M 317.61235 148.075343  L 314.210832 135.380706  L 326.905468 138.782224  L 317.61235 148.075343  z "
           clip-path="url(#pbe1eecd1f6)"
           style="fill: none; stroke: #ff0000; stroke-linejoin: miter"
           id="path241" />
      </g>
      <g
         id="patch_67">
        <path
           d="M 330.306986 151.47686  L 343.001622 154.878378  L 339.600105 142.183742  L 330.306986 151.47686  z "
           clip-path="url(#pbe1eecd1f6)"
           style="fill: none; stroke: #ff0000; stroke-linejoin: miter"
           id="path244" />
      </g>
      <g
         id="patch_68">
        <path
           d="M 330.306986 151.47686  L 326.905468 138.782224  L 339.600105 142.183742  L 330.306986 151.47686  z "
           clip-path="url(#pbe1eecd1f6)"
           style="fill: none; stroke: #ff0000; stroke-linejoin: miter"
           id="path247" />
      </g>
      <g
         id="patch_69">
        <path
           d="M 343.001622 154.878378  L 355.696258 158.279895  L 352.294741 145.585259  L 343.001622 154.878378  z "
           clip-path="url(#pbe1eecd1f6)"
           style="fill: none; stroke: #ff0000; stroke-linejoin: miter"
           id="path250" />
      </g>
      <g
         id="patch_70">
        <path
           d="M 343.001622 154.878378  L 339.600105 142.183742  L 352.294741 145.585259  L 343.001622 154.878378  z "
           clip-path="url(#pbe1eecd1f6)"
           style="fill: none; stroke: #ff0000; stroke-linejoin: miter"
           id="path253" />
      </g>
      <g
         id="patch_71">
        <path
           d="M 288.821559 128.577671  L 301.516196 131.979189  L 298.114678 119.284553  L 288.821559 128.577671  z "
           clip-path="url(#pbe1eecd1f6)"
           style="fill: none; stroke: #ff0000; stroke-linejoin: miter"
           id="path256" />
      </g>
      <g
         id="patch_72">
        <path
           d="M 288.821559 128.577671  L 285.420042 115.883035  L 298.114678 119.284553  L 288.821559 128.577671  z "
           clip-path="url(#pbe1eecd1f6)"
           style="fill: none; stroke: #ff0000; stroke-linejoin: miter"
           id="path259" />
      </g>
      <g
         id="patch_73">
        <path
           d="M 301.516196 131.979189  L 314.210832 135.380706  L 310.809314 122.68607  L 301.516196 131.979189  z "
           clip-path="url(#pbe1eecd1f6)"
           style="fill: none; stroke: #ff0000; stroke-linejoin: miter"
           id="path262" />
      </g>
      <g
         id="patch_74">
        <path
           d="M 301.516196 131.979189  L 298.114678 119.284553  L 310.809314 122.68607  L 301.516196 131.979189  z "
           clip-path="url(#pbe1eecd1f6)"
           style="fill: none; stroke: #ff0000; stroke-linejoin: miter"
           id="path265" />
      </g>
      <g
         id="patch_75">
        <path
           d="M 314.210832 135.380706  L 326.905468 138.782224  L 323.503951 126.087588  L 314.210832 135.380706  z "
           clip-path="url(#pbe1eecd1f6)"
           style="fill: none; stroke: #ff0000; stroke-linejoin: miter"
           id="path268" />
      </g>
      <g
         id="patch_76">
        <path
           d="M 314.210832 135.380706  L 310.809314 122.68607  L 323.503951 126.087588  L 314.210832 135.380706  z "
           clip-path="url(#pbe1eecd1f6)"
           style="fill: none; stroke: #ff0000; stroke-linejoin: miter"
           id="path271" />
      </g>
      <g
         id="patch_77">
        <path
           d="M 326.905468 138.782224  L 339.600105 142.183742  L 336.198587 129.489105  L 326.905468 138.782224  z "
           clip-path="url(#pbe1eecd1f6)"
           style="fill: none; stroke: #ff0000; stroke-linejoin: miter"
           id="path274" />
      </g>
      <g
         id="patch_78">
        <path
           d="M 326.905468 138.782224  L 323.503951 126.087588  L 336.198587 129.489105  L 326.905468 138.782224  z "
           clip-path="url(#pbe1eecd1f6)"
           style="fill: none; stroke: #ff0000; stroke-linejoin: miter"
           id="path277" />
      </g>
      <g
         id="patch_79">
        <path
           d="M 339.600105 142.183742  L 352.294741 145.585259  L 348.893223 132.890623  L 339.600105 142.183742  z "
           clip-path="url(#pbe1eecd1f6)"
           style="fill: none; stroke: #ff0000; stroke-linejoin: miter"
           id="path280" />
      </g>
      <g
         id="patch_80">
        <path
           d="M 339.600105 142.183742  L 336.198587 129.489105  L 348.893223 132.890623  L 339.600105 142.183742  z "
           clip-path="url(#pbe1eecd1f6)"
           style="fill: none; stroke: #ff0000; stroke-linejoin: miter"
           id="path283" />
      </g>
      <g
         id="patch_81">
        <path
           d="M 285.420042 115.883035  L 298.114678 119.284553  L 294.713161 106.589916  L 285.420042 115.883035  z "
           clip-path="url(#pbe1eecd1f6)"
           style="fill: none; stroke: #ff0000; stroke-linejoin: miter"
           id="path286" />
      </g>
      <g
         id="patch_82">
        <path
           d="M 285.420042 115.883035  L 282.018524 103.188399  L 294.713161 106.589916  L 285.420042 115.883035  z "
           clip-path="url(#pbe1eecd1f6)"
           style="fill: none; stroke: #ff0000; stroke-linejoin: miter"
           id="path289" />
      </g>
      <g
         id="patch_83">
        <path
           d="M 298.114678 119.284553  L 310.809314 122.68607  L 307.407797 109.991434  L 298.114678 119.284553  z "
           clip-path="url(#pbe1eecd1f6)"
           style="fill: none; stroke: #ff0000; stroke-linejoin: miter"
           id="path292" />
      </g>
      <g
         id="patch_84">
        <path
           d="M 298.114678 119.284553  L 294.713161 106.589916  L 307.407797 109.991434  L 298.114678 119.284553  z "
           clip-path="url(#pbe1eecd1f6)"
           style="fill: none; stroke: #ff0000; stroke-linejoin: miter"
           id="path295" />
      </g>
      <g
         id="patch_85">
        <path
           d="M 310.809314 122.68607  L 323.503951 126.087588  L 320.102433 113.392951  L 310.809314 122.68607  z "
           clip-path="url(#pbe1eecd1f6)"
           style="fill: none; stroke: #ff0000; stroke-linejoin: miter"
           id="path298" />
      </g>
      <g
         id="patch_86">
        <path
           d="M 310.809314 122.68607  L 307.407797 109.991434  L 320.102433 113.392951  L 310.809314 122.68607  z "
           clip-path="url(#pbe1eecd1f6)"
           style="fill: none; stroke: #ff0000; stroke-linejoin: miter"
           id="path301" />
      </g>
      <g
         id="patch_87">
        <path
           d="M 323.503951 126.087588  L 336.198587 129.489105  L 332.797069 116.794469  L 323.503951 126.087588  z "
           clip-path="url(#pbe1eecd1f6)"
           style="fill: none; stroke: #ff0000; stroke-linejoin: miter"
           id="path304" />
      </g>
      <g
         id="patch_88">
        <path
           d="M 323.503951 126.087588  L 320.102433 113.392951  L 332.797069 116.794469  L 323.503951 126.087588  z "
           clip-path="url(#pbe1eecd1f6)"
           style="fill: none; stroke: #ff0000; stroke-linejoin: miter"
           id="path307" />
      </g>
      <g
         id="patch_89">
        <path
           d="M 336.198587 129.489105  L 348.893223 132.890623  L 345.491706 120.195987  L 336.198587 129.489105  z "
           clip-path="url(#pbe1eecd1f6)"
           style="fill: none; stroke: #ff0000; stroke-linejoin: miter"
           id="path310" />
      </g>
      <g
         id="patch_90">
        <path
           d="M 336.198587 129.489105  L 332.797069 116.794469  L 345.491706 120.195987  L 336.198587 129.489105  z "
           clip-path="url(#pbe1eecd1f6)"
           style="fill: none; stroke: #ff0000; stroke-linejoin: miter"
           id="path313" />
      </g>
      <g
         id="patch_91">
        <path
           d="M 282.018524 103.188399  L 294.713161 106.589916  L 291.311643 93.89528  L 282.018524 103.188399  z "
           clip-path="url(#pbe1eecd1f6)"
           style="fill: none; stroke: #ff0000; stroke-linejoin: miter"
           id="path316" />
      </g>
      <g
         id="patch_92">
        <path
           d="M 282.018524 103.188399  L 278.617007 90.493762  L 291.311643 93.89528  L 282.018524 103.188399  z "
           clip-path="url(#pbe1eecd1f6)"
           style="fill: none; stroke: #ff0000; stroke-linejoin: miter"
           id="path319" />
      </g>
      <g
         id="patch_93">
        <path
           d="M 294.713161 106.589916  L 307.407797 109.991434  L 304.006279 97.296798  L 294.713161 106.589916  z "
           clip-path="url(#pbe1eecd1f6)"
           style="fill: none; stroke: #ff0000; stroke-linejoin: miter"
           id="path322" />
      </g>
      <g
         id="patch_94">
        <path
           d="M 294.713161 106.589916  L 291.311643 93.89528  L 304.006279 97.296798  L 294.713161 106.589916  z "
           clip-path="url(#pbe1eecd1f6)"
           style="fill: none; stroke: #ff0000; stroke-linejoin: miter"
           id="path325" />
      </g>
      <g
         id="patch_95">
        <path
           d="M 307.407797 109.991434  L 320.102433 113.392951  L 316.700916 100.698315  L 307.407797 109.991434  z "
           clip-path="url(#pbe1eecd1f6)"
           style="fill: none; stroke: #ff0000; stroke-linejoin: miter"
           id="path328" />
      </g>
      <g
         id="patch_96">
        <path
           d="M 307.407797 109.991434  L 304.006279 97.296798  L 316.700916 100.698315  L 307.407797 109.991434  z "
           clip-path="url(#pbe1eecd1f6)"
           style="fill: none; stroke: #ff0000; stroke-linejoin: miter"
           id="path331" />
      </g>
      <g
         id="patch_97">
        <path
           d="M 320.102433 113.392951  L 332.797069 116.794469  L 329.395552 104.099833  L 320.102433 113.392951  z "
           clip-path="url(#pbe1eecd1f6)"
           style="fill: none; stroke: #ff0000; stroke-linejoin: miter"
           id="path334" />
      </g>
      <g
         id="patch_98">
        <path
           d="M 320.102433 113.392951  L 316.700916 100.698315  L 329.395552 104.099833  L 320.102433 113.392951  z "
           clip-path="url(#pbe1eecd1f6)"
           style="fill: none; stroke: #ff0000; stroke-linejoin: miter"
           id="path337" />
      </g>
      <g
         id="patch_99">
        <path
           d="M 332.797069 116.794469  L 345.491706 120.195987  L 342.090188 107.50135  L 332.797069 116.794469  z "
           clip-path="url(#pbe1eecd1f6)"
           style="fill: none; stroke: #ff0000; stroke-linejoin: miter"
           id="path340" />
      </g>
      <g
         id="patch_100">
        <path
           d="M 332.797069 116.794469  L 329.395552 104.099833  L 342.090188 107.50135  L 332.797069 116.794469  z "
           clip-path="url(#pbe1eecd1f6)"
           style="fill: none; stroke: #ff0000; stroke-linejoin: miter"
           id="path343" />
      </g>
      <g
         id="patch_101">
        <path
           d="M 278.617007 90.493762  L 291.311643 93.89528  L 287.910125 81.200644  L 278.617007 90.493762  z "
           clip-path="url(#pbe1eecd1f6)"
           style="fill: none; stroke: #ff0000; stroke-linejoin: miter"
           id="path346" />
      </g>
      <g
         id="patch_102">
        <path
           d="M 278.617007 90.493762  L 275.215489 77.799126  L 287.910125 81.200644  L 278.617007 90.493762  z "
           clip-path="url(#pbe1eecd1f6)"
           style="fill: none; stroke: #ff0000; stroke-linejoin: miter"
           id="path349" />
      </g>
      <g
         id="patch_103">
        <path
           d="M 291.311643 93.89528  L 304.006279 97.296798  L 300.604762 84.602161  L 291.311643 93.89528  z "
           clip-path="url(#pbe1eecd1f6)"
           style="fill: none; stroke: #ff0000; stroke-linejoin: miter"
           id="path352" />
      </g>
      <g
         id="patch_104">
        <path
           d="M 291.311643 93.89528  L 287.910125 81.200644  L 300.604762 84.602161  L 291.311643 93.89528  z "
           clip-path="url(#pbe1eecd1f6)"
           style="fill: none; stroke: #ff0000; stroke-linejoin: miter"
           id="path355" />
      </g>
      <g
         id="patch_105">
        <path
           d="M 304.006279 97.296798  L 316.700916 100.698315  L 313.299398 88.003679  L 304.006279 97.296798  z "
           clip-path="url(#pbe1eecd1f6)"
           style="fill: none; stroke: #ff0000; stroke-linejoin: miter"
           id="path358" />
      </g>
      <g
         id="patch_106">
        <path
           d="M 304.006279 97.296798  L 300.604762 84.602161  L 313.299398 88.003679  L 304.006279 97.296798  z "
           clip-path="url(#pbe1eecd1f6)"
           style="fill: none; stroke: #ff0000; stroke-linejoin: miter"
           id="path361" />
      </g>
      <g
         id="patch_107">
        <path
           d="M 316.700916 100.698315  L 329.395552 104.099833  L 325.994034 91.405196  L 316.700916 100.698315  z "
           clip-path="url(#pbe1eecd1f6)"
           style="fill: none; stroke: #ff0000; stroke-linejoin: miter"
           id="path364" />
      </g>
      <g
         id="patch_108">
        <path
           d="M 316.700916 100.698315  L 313.299398 88.003679  L 325.994034 91.405196  L 316.700916 100.698315  z "
           clip-path="url(#pbe1eecd1f6)"
           style="fill: none; stroke: #ff0000; stroke-linejoin: miter"
           id="path367" />
      </g>
      <g
         id="patch_109">
        <path
           d="M 329.395552 104.099833  L 342.090188 107.50135  L 338.688671 94.806714  L 329.395552 104.099833  z "
           clip-path="url(#pbe1eecd1f6)"
           style="fill: none; stroke: #ff0000; stroke-linejoin: miter"
           id="path370" />
      </g>
      <g
         id="patch_110">
        <path
           d="M 329.395552 104.099833  L 325.994034 91.405196  L 338.688671 94.806714  L 329.395552 104.099833  z "
           clip-path="url(#pbe1eecd1f6)"
           style="fill: none; stroke: #ff0000; stroke-linejoin: miter"
           id="path373" />
      </g>
      <g
         id="patch_111">
        <path
           d="M 323.503951 126.087588  L 336.198587 129.489105  L 332.797069 116.794469  z "
           clip-path="url(#pbe1eecd1f6)"
           style="fill-opacity: 0.5; stroke: #ff0000; stroke-linejoin: miter"
           id="path376" />
      </g>
      <g
         id="patch_112">
        <path
           d="M 260.030769 141.272308  L 388.8 141.272308  L 260.030769 141.272308  z "
           clip-path="url(#pbe1eecd1f6)"
           style="fill: none; stroke: #000000; stroke-opacity: 0.5; stroke-linejoin: miter"
           id="path379" />
      </g>
      <g
         id="patch_113">
        <path
           d="M 292.223077 173.464615  L 292.223077 44.695385  L 292.223077 173.464615  z "
           clip-path="url(#pbe1eecd1f6)"
           style="fill: none; stroke: #000000; stroke-opacity: 0.5; stroke-linejoin: miter"
           id="path382" />
      </g>
      <g
         id="matplotlib.axis_3" />
      <g
         id="matplotlib.axis_4" />
      <g
         id="patch_114">
        <path
           d="M 260.030769 173.464615  L 260.030769 44.695385  "
           style="fill: none; stroke: #000000; stroke-width: 0.8; stroke-linejoin: miter; stroke-linecap: square"
           id="path387" />
      </g>
      <g
         id="patch_115">
        <path
           d="M 388.8 173.464615  L 388.8 44.695385  "
           style="fill: none; stroke: #000000; stroke-width: 0.8; stroke-linejoin: miter; stroke-linecap: square"
           id="path390" />
      </g>
      <g
         id="patch_116">
        <path
           d="M 260.030769 173.464615  L 388.8 173.464615  "
           style="fill: none; stroke: #000000; stroke-width: 0.8; stroke-linejoin: miter; stroke-linecap: square"
           id="path393" />
      </g>
      <g
         id="patch_117">
        <path
           d="M 260.030769 44.695385  L 388.8 44.695385  "
           style="fill: none; stroke: #000000; stroke-width: 0.8; stroke-linejoin: miter; stroke-linecap: square"
           id="path396" />
      </g>
      <g
         id="text_4">
        <!-- $(0,0)$ -->
        <g
           transform="translate(266.523077 148.870745) scale(0.1 -0.1)"
           id="g409">
          <use
             xlink:href="#DejaVuSans-28"
             transform="translate(0 0.125)"
             id="use399" />
          <use
             xlink:href="#DejaVuSans-30"
             transform="translate(39.013672 0.125)"
             id="use401" />
          <use
             xlink:href="#DejaVuSans-2c"
             transform="translate(102.636719 0.125)"
             id="use403" />
          <use
             xlink:href="#DejaVuSans-30"
             transform="translate(153.90625 0.125)"
             id="use405" />
          <use
             xlink:href="#DejaVuSans-29"
             transform="translate(217.529297 0.125)"
             id="use407" />
        </g>
      </g>
      <g
         id="text_5">
        <!-- x -->
        <g
           transform="translate(374.833173 137.112933) scale(0.2 -0.2)"
           id="g414">
          <use
             xlink:href="#DejaVuSans-78"
             id="use412" />
        </g>
      </g>
      <g
         id="text_6">
        <!-- y -->
        <g
           transform="translate(278.25625 58.262212) scale(0.2 -0.2)"
           id="g419">
          <use
             xlink:href="#DejaVuSans-79"
             id="use417" />
        </g>
      </g>
    </g>
  </g>
  <defs
     id="defs430">
    <clipPath
       id="pdfa50adcb0">
      <rect
         x="54"
         y="44.695385"
         width="128.769231"
         height="128.769231"
         id="rect424" />
    </clipPath>
    <clipPath
       id="pbe1eecd1f6">
      <rect
         x="260.030769"
         y="44.695385"
         width="128.769231"
         height="128.769231"
         id="rect427" />
    </clipPath>
  </defs>
  <path
     style="fill:none;stroke:#000000;stroke-width:2;stroke-linejoin:bevel;stroke-miterlimit:1;paint-order:stroke markers fill;marker-end:url(#Arrow4)"
     d="m 280.29586,177.46223 c -70.4232,30.84129 -115.22035,0.49922 -115.22035,0.49922"
     id="path1246"
     sodipodi:nodetypes="cc" />
  <g
     inkscape:label=""
     transform="translate(214.16259,166.44479)"
     id="g2669"
     style="fill:#000000;stroke:#ffffff;paint-order:stroke markers fill">
    <g
       clip-path="url(#clipPath5245)"
       id="g16"
       transform="translate(-0.59375,-0.141125)"
       style="fill:#000000;stroke:#ffffff;paint-order:stroke markers fill">
      <g
         fill="#000000"
         fill-opacity="1"
         id="g14"
         style="fill:#000000;stroke:#ffffff;paint-order:stroke markers fill">
        <g
           id="use12"
           transform="translate(0,16.938)"
           style="fill:#000000;stroke:#ffffff;paint-order:stroke markers fill">
          <path
             d="m 10.328125,-15.109375 c 0.15625,-0.609375 0.203125,-0.828125 0.578125,-0.921875 0.203125,-0.04687 1.015625,-0.04687 1.53125,-0.04687 2.484375,0 3.640625,0.09375 3.640625,2.03125 0,0.375 -0.09375,1.3125 -0.25,2.21875 l -0.01563,0.3125 c 0,0.09375 0.09375,0.234375 0.25,0.234375 0.25,0 0.25,-0.125 0.3125,-0.515625 l 0.71875,-4.390625 c 0.0625,-0.21875 0.0625,-0.265625 0.0625,-0.34375 0,-0.265625 -0.15625,-0.265625 -0.65625,-0.265625 H 2.953125 c -0.578125,0 -0.59375,0.01563 -0.75,0.46875 L 0.6875,-11.875 c -0.015625,0.04687 -0.09375,0.328125 -0.09375,0.359375 0,0.109375 0.09375,0.234375 0.25,0.234375 0.203125,0 0.25,-0.09375 0.34375,-0.421875 1.046875,-2.984375 1.5625,-4.375 4.859375,-4.375 h 1.65625 c 0.59375,0 0.84375,0 0.84375,0.265625 0,0.07813 0,0.125 -0.125,0.578125 L 5.109375,-1.9375 c -0.25,0.96875 -0.296875,1.21875 -2.921875,1.21875 -0.625,0 -0.796875,0 -0.796875,0.46875 C 1.390625,0 1.65625,0 1.78125,0 2.40625,0 3.046875,-0.046875 3.671875,-0.046875 H 7.53125 C 8.15625,-0.046875 8.828125,0 9.4375,0 c 0.28125,0 0.53125,0 0.53125,-0.46875 0,-0.25 -0.1875,-0.25 -0.828125,-0.25 -2.234375,0 -2.234375,-0.21875 -2.234375,-0.59375 0,-0.03125 0,-0.203125 0.109375,-0.59375 z m 0,0"
             id="path22"
             style="fill:#000000;stroke:#ffffff;paint-order:stroke markers fill" />
        </g>
      </g>
    </g>
  </g>
</svg>
