<?xml version="1.0" encoding="utf-8" standalone="no"?>
<!DOCTYPE svg PUBLIC "-//W3C//DTD SVG 1.1//EN"
  "http://www.w3.org/Graphics/SVG/1.1/DTD/svg11.dtd">
<svg xmlns:xlink="http://www.w3.org/1999/xlink" width="360pt" height="360pt" viewBox="0 0 360 360" xmlns="http://www.w3.org/2000/svg" version="1.1">
 <metadata>
  <rdf:RDF xmlns:dc="http://purl.org/dc/elements/1.1/" xmlns:cc="http://creativecommons.org/ns#" xmlns:rdf="http://www.w3.org/1999/02/22-rdf-syntax-ns#">
   <cc:Work>
    <dc:type rdf:resource="http://purl.org/dc/dcmitype/StillImage"/>
    <dc:date>2025-01-23T15:19:54.038372</dc:date>
    <dc:format>image/svg+xml</dc:format>
    <dc:creator>
     <cc:Agent>
      <dc:title>Matplotlib v3.6.3, https://matplotlib.org/</dc:title>
     </cc:Agent>
    </dc:creator>
   </cc:Work>
  </rdf:RDF>
 </metadata>
 <defs>
  <style type="text/css">*{stroke-linejoin: round; stroke-linecap: butt}</style>
 </defs>
 <g id="figure_1">
  <g id="patch_1">
   <path d="M 0 360 
L 360 360 
L 360 0 
L 0 0 
z
" style="fill: #ffffff"/>
  </g>
  <g id="axes_1">
   <g id="Quiver_1">
    <path d="M 116.173636 229.819943 
L 231.088909 296.166306 
L 231.305948 292.550384 
L 242.905559 304.859267 
L 226.445948 300.968151 
L 229.468909 298.972229 
L 114.553636 232.625865 
L 116.173636 229.819943 
" style="fill: #ff0000"/>
    <path d="M 261.233402 230.412904 
L 327.579766 115.497631 
L 323.963844 115.280592 
L 336.272727 103.680981 
L 332.381611 120.140592 
L 330.385688 117.117631 
L 264.039325 232.032904 
L 261.233402 230.412904 
" style="fill: #ff0000"/>
    <path d="M 188.580713 105.245781 
L 60.409381 70.902376 
L 61.135607 74.451262 
L 46.745469 65.563994 
L 63.651328 65.062463 
L 61.247955 67.772776 
L 189.419287 102.116181 
L 188.580713 105.245781 
" style="fill: #ff0000"/>
   </g>
   <g id="patch_2">
    <path d="M 115.363636 231.222904 
L 262.636364 231.222904 
L 189 103.680981 
L 115.363636 231.222904 
z
" clip-path="url(#p98a148b25c)" style="fill: none; stroke: #000000; stroke-linejoin: miter"/>
   </g>
  </g>
 </g>
 <defs>
  <clipPath id="p98a148b25c">
   <rect x="108" y="75.6" width="162" height="162"/>
  </clipPath>
 </defs>
</svg>
