<?xml version="1.0" encoding="utf-8" standalone="no"?>
<!DOCTYPE svg PUBLIC "-//W3C//DTD SVG 1.1//EN"
  "http://www.w3.org/Graphics/SVG/1.1/DTD/svg11.dtd">
<svg xmlns:xlink="http://www.w3.org/1999/xlink" width="360pt" height="360pt" viewBox="0 0 360 360" xmlns="http://www.w3.org/2000/svg" version="1.1">
 <metadata>
  <rdf:RDF xmlns:dc="http://purl.org/dc/elements/1.1/" xmlns:cc="http://creativecommons.org/ns#" xmlns:rdf="http://www.w3.org/1999/02/22-rdf-syntax-ns#">
   <cc:Work>
    <dc:type rdf:resource="http://purl.org/dc/dcmitype/StillImage"/>
    <dc:date>2025-01-23T15:18:22.402831</dc:date>
    <dc:format>image/svg+xml</dc:format>
    <dc:creator>
     <cc:Agent>
      <dc:title>Matplotlib v3.6.3, https://matplotlib.org/</dc:title>
     </cc:Agent>
    </dc:creator>
   </cc:Work>
  </rdf:RDF>
 </metadata>
 <defs>
  <style type="text/css">*{stroke-linejoin: round; stroke-linecap: butt}</style>
 </defs>
 <g id="figure_1">
  <g id="patch_1">
   <path d="M 0 360 
L 360 360 
L 360 0 
L 0 0 
z
" style="fill: #ffffff"/>
  </g>
  <g id="axes_1">
   <g id="Quiver_1">
    <path d="M 116.173636 229.819943 
L 231.088909 296.166306 
L 231.305948 292.550384 
L 242.905559 304.859267 
L 226.445948 300.968151 
L 229.468909 298.972229 
L 114.553636 232.625865 
L 116.173636 229.819943 
" style="fill: #ff0000"/>
    <path d="M 261.233402 230.412904 
L 327.579766 115.497631 
L 323.963844 115.280592 
L 336.272727 103.680981 
L 332.381611 120.140592 
L 330.385688 117.117631 
L 264.039325 232.032904 
L 261.233402 230.412904 
" style="fill: #ff0000"/>
    <path d="M 188.580713 105.245781 
L 60.409381 70.902376 
L 61.135607 74.451262 
L 46.745469 65.563994 
L 63.651328 65.062463 
L 61.247955 67.772776 
L 189.419287 102.116181 
L 188.580713 105.245781 
" style="fill: #ff0000"/>
   </g>
   <g id="Quiver_2">
    <path d="M 114.465022 229.874982 
L 190.697365 179.05342 
L 187.552215 177.256192 
L 203.727273 172.313813 
L 192.943901 185.343721 
L 192.494594 181.749263 
L 116.262251 232.570825 
L 114.465022 229.874982 
" style="fill-opacity: 0.3"/>
    <path d="M 261.490851 232.368417 
L 212.891377 183.768943 
L 211.745864 187.205482 
L 203.727273 172.313813 
L 218.618942 180.332404 
L 215.182403 181.477917 
L 263.781877 230.077391 
L 261.490851 232.368417 
" style="fill-opacity: 0.3"/>
    <path d="M 190.583944 103.341097 
L 202.252264 157.718432 
L 205.080269 155.45472 
L 203.727273 172.313813 
L 195.576604 157.494022 
L 199.084376 158.398199 
L 187.416056 104.020864 
L 190.583944 103.341097 
" style="fill-opacity: 0.3"/>
   </g>
   <g id="patch_2">
    <path d="M 115.363636 231.222904 
L 262.636364 231.222904 
L 189 103.680981 
L 115.363636 231.222904 
z
" clip-path="url(#p6ca26aa6ff)" style="fill: none; stroke: #000000; stroke-linejoin: miter"/>
   </g>
   <g id="line2d_1">
    <path d="M 203.727273 172.313813 
" clip-path="url(#p6ca26aa6ff)" style="fill: none; stroke: #1f77b4; stroke-width: 1.5; stroke-linecap: square"/>
    <defs>
     <path id="m50576f766f" d="M 0 1.5 
C 0.397805 1.5 0.77937 1.341951 1.06066 1.06066 
C 1.341951 0.77937 1.5 0.397805 1.5 0 
C 1.5 -0.397805 1.341951 -0.77937 1.06066 -1.06066 
C 0.77937 -1.341951 0.397805 -1.5 0 -1.5 
C -0.397805 -1.5 -0.77937 -1.341951 -1.06066 -1.06066 
C -1.341951 -0.77937 -1.5 -0.397805 -1.5 0 
C -1.5 0.397805 -1.341951 0.77937 -1.06066 1.06066 
C -0.77937 1.341951 -0.397805 1.5 0 1.5 
z
" style="stroke: #1f77b4"/>
    </defs>
    <g clip-path="url(#p6ca26aa6ff)">
     <use xlink:href="#m50576f766f" x="203.727273" y="172.313813" style="fill: #1f77b4; stroke: #1f77b4"/>
    </g>
   </g>
   <g id="text_1">
    <!-- P -->
    <g transform="translate(206.672727 169.368358) scale(0.2 -0.2)">
     <defs>
      <path id="DejaVuSans-50" d="M 1259 4147 
L 1259 2394 
L 2053 2394 
Q 2494 2394 2734 2622 
Q 2975 2850 2975 3272 
Q 2975 3691 2734 3919 
Q 2494 4147 2053 4147 
L 1259 4147 
z
M 628 4666 
L 2053 4666 
Q 2838 4666 3239 4311 
Q 3641 3956 3641 3272 
Q 3641 2581 3239 2228 
Q 2838 1875 2053 1875 
L 1259 1875 
L 1259 0 
L 628 0 
L 628 4666 
z
" transform="scale(0.015625)"/>
     </defs>
     <use xlink:href="#DejaVuSans-50"/>
    </g>
   </g>
   <g id="text_2">
    <!-- $O_0$ -->
    <g transform="translate(97.690909 248.895631) scale(0.2 -0.2)">
     <defs>
      <path id="DejaVuSans-Oblique-4f" d="M 2919 4238 
Q 2400 4238 2003 3986 
Q 1606 3734 1313 3219 
Q 1125 2891 1026 2522 
Q 928 2153 928 1778 
Q 928 1128 1239 775 
Q 1550 422 2119 422 
Q 2631 422 3032 676 
Q 3434 931 3719 1434 
Q 3909 1772 4009 2142 
Q 4109 2513 4109 2881 
Q 4109 3528 3796 3883 
Q 3484 4238 2919 4238 
z
M 2100 -91 
Q 1241 -91 748 418 
Q 256 928 256 1813 
Q 256 2319 448 2847 
Q 641 3375 978 3788 
Q 1375 4272 1862 4511 
Q 2350 4750 2938 4750 
Q 3794 4750 4287 4245 
Q 4781 3741 4781 2869 
Q 4781 2331 4593 1812 
Q 4406 1294 4056 872 
Q 3656 384 3173 146 
Q 2691 -91 2100 -91 
z
" transform="scale(0.015625)"/>
      <path id="DejaVuSans-30" d="M 2034 4250 
Q 1547 4250 1301 3770 
Q 1056 3291 1056 2328 
Q 1056 1369 1301 889 
Q 1547 409 2034 409 
Q 2525 409 2770 889 
Q 3016 1369 3016 2328 
Q 3016 3291 2770 3770 
Q 2525 4250 2034 4250 
z
M 2034 4750 
Q 2819 4750 3233 4129 
Q 3647 3509 3647 2328 
Q 3647 1150 3233 529 
Q 2819 -91 2034 -91 
Q 1250 -91 836 529 
Q 422 1150 422 2328 
Q 422 3509 836 4129 
Q 1250 4750 2034 4750 
z
" transform="scale(0.015625)"/>
     </defs>
     <use xlink:href="#DejaVuSans-Oblique-4f" transform="translate(0 0.78125)"/>
     <use xlink:href="#DejaVuSans-30" transform="translate(78.710938 -15.625) scale(0.7)"/>
    </g>
   </g>
   <g id="text_3">
    <!-- $O_1$ -->
    <g transform="translate(265.581818 248.895631) scale(0.2 -0.2)">
     <defs>
      <path id="DejaVuSans-31" d="M 794 531 
L 1825 531 
L 1825 4091 
L 703 3866 
L 703 4441 
L 1819 4666 
L 2450 4666 
L 2450 531 
L 3481 531 
L 3481 0 
L 794 0 
L 794 531 
z
" transform="scale(0.015625)"/>
     </defs>
     <use xlink:href="#DejaVuSans-Oblique-4f" transform="translate(0 0.78125)"/>
     <use xlink:href="#DejaVuSans-31" transform="translate(78.710938 -15.625) scale(0.7)"/>
    </g>
   </g>
   <g id="text_4">
    <!-- $O_2$ -->
    <g transform="translate(191.945455 100.735526) scale(0.2 -0.2)">
     <defs>
      <path id="DejaVuSans-32" d="M 1228 531 
L 3431 531 
L 3431 0 
L 469 0 
L 469 531 
Q 828 903 1448 1529 
Q 2069 2156 2228 2338 
Q 2531 2678 2651 2914 
Q 2772 3150 2772 3378 
Q 2772 3750 2511 3984 
Q 2250 4219 1831 4219 
Q 1534 4219 1204 4116 
Q 875 4013 500 3803 
L 500 4441 
Q 881 4594 1212 4672 
Q 1544 4750 1819 4750 
Q 2544 4750 2975 4387 
Q 3406 4025 3406 3419 
Q 3406 3131 3298 2873 
Q 3191 2616 2906 2266 
Q 2828 2175 2409 1742 
Q 1991 1309 1228 531 
z
" transform="scale(0.015625)"/>
     </defs>
     <use xlink:href="#DejaVuSans-Oblique-4f" transform="translate(0 0.78125)"/>
     <use xlink:href="#DejaVuSans-32" transform="translate(78.710938 -15.625) scale(0.7)"/>
    </g>
   </g>
   <g id="text_5">
    <!-- $v_0$ -->
    <g style="fill: #ff0000" transform="translate(174.272727 290.131995) scale(0.2 -0.2)">
     <defs>
      <path id="DejaVuSans-Oblique-76" d="M 459 3500 
L 1069 3500 
L 1581 525 
L 3256 3500 
L 3866 3500 
L 1875 0 
L 1100 0 
L 459 3500 
z
" transform="scale(0.015625)"/>
     </defs>
     <use xlink:href="#DejaVuSans-Oblique-76" transform="translate(0 0.3125)"/>
     <use xlink:href="#DejaVuSans-30" transform="translate(59.179688 -16.09375) scale(0.7)"/>
    </g>
   </g>
   <g id="text_6">
    <!-- $v_1$ -->
    <g style="fill: #ff0000" transform="translate(281.781818 157.58654) scale(0.2 -0.2)">
     <use xlink:href="#DejaVuSans-Oblique-76" transform="translate(0 0.3125)"/>
     <use xlink:href="#DejaVuSans-31" transform="translate(59.179688 -16.09375) scale(0.7)"/>
    </g>
   </g>
   <g id="text_7">
    <!-- $v_2$ -->
    <g style="fill: #ff0000" transform="translate(100.636364 76.58654) scale(0.2 -0.2)">
     <use xlink:href="#DejaVuSans-Oblique-76" transform="translate(0 0.3125)"/>
     <use xlink:href="#DejaVuSans-32" transform="translate(59.179688 -16.09375) scale(0.7)"/>
    </g>
   </g>
  </g>
 </g>
 <defs>
  <clipPath id="p6ca26aa6ff">
   <rect x="108" y="75.6" width="162" height="162"/>
  </clipPath>
 </defs>
</svg>
