<?xml version="1.0" encoding="utf-8" standalone="no"?>
<!DOCTYPE svg PUBLIC "-//W3C//DTD SVG 1.1//EN"
  "http://www.w3.org/Graphics/SVG/1.1/DTD/svg11.dtd">
<svg xmlns:xlink="http://www.w3.org/1999/xlink" width="360pt" height="360pt" viewBox="0 0 360 360" xmlns="http://www.w3.org/2000/svg" version="1.1">
 <metadata>
  <rdf:RDF xmlns:dc="http://purl.org/dc/elements/1.1/" xmlns:cc="http://creativecommons.org/ns#" xmlns:rdf="http://www.w3.org/1999/02/22-rdf-syntax-ns#">
   <cc:Work>
    <dc:type rdf:resource="http://purl.org/dc/dcmitype/StillImage"/>
    <dc:date>2025-01-24T19:56:47.629759</dc:date>
    <dc:format>image/svg+xml</dc:format>
    <dc:creator>
     <cc:Agent>
      <dc:title>Matplotlib v3.6.3, https://matplotlib.org/</dc:title>
     </cc:Agent>
    </dc:creator>
   </cc:Work>
  </rdf:RDF>
 </metadata>
 <defs>
  <style type="text/css">*{stroke-linejoin: round; stroke-linecap: butt}</style>
 </defs>
 <g id="figure_1">
  <g id="patch_1">
   <path d="M 0 360 
L 360 360 
L 360 0 
L 0 0 
z
" style="fill: #ffffff"/>
  </g>
  <g id="axes_1">
   <g id="patch_2">
    <path d="M 45.9 320.4 
L 323.1 320.4 
L 323.1 43.2 
L 45.9 43.2 
z
" style="fill: #ffffff"/>
   </g>
   <g id="patch_3">
    <path d="M 85.5 280.8 
L 125.1 280.8 
L 125.1 241.2 
L 85.5 280.8 
z
" clip-path="url(#p8f3f8292ff)" style="fill: none; stroke: #000000; stroke-linejoin: miter"/>
   </g>
   <g id="patch_4">
    <path d="M 85.5 280.8 
L 85.5 241.2 
L 125.1 241.2 
L 85.5 280.8 
z
" clip-path="url(#p8f3f8292ff)" style="fill: none; stroke: #000000; stroke-linejoin: miter"/>
   </g>
   <g id="patch_5">
    <path d="M 125.1 280.8 
L 164.7 280.8 
L 164.7 241.2 
L 125.1 280.8 
z
" clip-path="url(#p8f3f8292ff)" style="fill: none; stroke: #000000; stroke-linejoin: miter"/>
   </g>
   <g id="patch_6">
    <path d="M 125.1 280.8 
L 125.1 241.2 
L 164.7 241.2 
L 125.1 280.8 
z
" clip-path="url(#p8f3f8292ff)" style="fill: none; stroke: #000000; stroke-linejoin: miter"/>
   </g>
   <g id="patch_7">
    <path d="M 164.7 280.8 
L 204.3 280.8 
L 204.3 241.2 
L 164.7 280.8 
z
" clip-path="url(#p8f3f8292ff)" style="fill: none; stroke: #000000; stroke-linejoin: miter"/>
   </g>
   <g id="patch_8">
    <path d="M 164.7 280.8 
L 164.7 241.2 
L 204.3 241.2 
L 164.7 280.8 
z
" clip-path="url(#p8f3f8292ff)" style="fill: none; stroke: #000000; stroke-linejoin: miter"/>
   </g>
   <g id="patch_9">
    <path d="M 204.3 280.8 
L 243.9 280.8 
L 243.9 241.2 
L 204.3 280.8 
z
" clip-path="url(#p8f3f8292ff)" style="fill: none; stroke: #000000; stroke-linejoin: miter"/>
   </g>
   <g id="patch_10">
    <path d="M 204.3 280.8 
L 204.3 241.2 
L 243.9 241.2 
L 204.3 280.8 
z
" clip-path="url(#p8f3f8292ff)" style="fill: none; stroke: #000000; stroke-linejoin: miter"/>
   </g>
   <g id="patch_11">
    <path d="M 243.9 280.8 
L 283.5 280.8 
L 283.5 241.2 
L 243.9 280.8 
z
" clip-path="url(#p8f3f8292ff)" style="fill: none; stroke: #000000; stroke-linejoin: miter"/>
   </g>
   <g id="patch_12">
    <path d="M 243.9 280.8 
L 243.9 241.2 
L 283.5 241.2 
L 243.9 280.8 
z
" clip-path="url(#p8f3f8292ff)" style="fill: none; stroke: #000000; stroke-linejoin: miter"/>
   </g>
   <g id="patch_13">
    <path d="M 85.5 241.2 
L 125.1 241.2 
L 125.1 201.6 
L 85.5 241.2 
z
" clip-path="url(#p8f3f8292ff)" style="fill: none; stroke: #000000; stroke-linejoin: miter"/>
   </g>
   <g id="patch_14">
    <path d="M 85.5 241.2 
L 85.5 201.6 
L 125.1 201.6 
L 85.5 241.2 
z
" clip-path="url(#p8f3f8292ff)" style="fill: none; stroke: #000000; stroke-linejoin: miter"/>
   </g>
   <g id="patch_15">
    <path d="M 125.1 241.2 
L 164.7 241.2 
L 164.7 201.6 
L 125.1 241.2 
z
" clip-path="url(#p8f3f8292ff)" style="fill: none; stroke: #000000; stroke-linejoin: miter"/>
   </g>
   <g id="patch_16">
    <path d="M 125.1 241.2 
L 125.1 201.6 
L 164.7 201.6 
L 125.1 241.2 
z
" clip-path="url(#p8f3f8292ff)" style="fill: none; stroke: #000000; stroke-linejoin: miter"/>
   </g>
   <g id="patch_17">
    <path d="M 164.7 241.2 
L 204.3 241.2 
L 204.3 201.6 
L 164.7 241.2 
z
" clip-path="url(#p8f3f8292ff)" style="fill: none; stroke: #000000; stroke-linejoin: miter"/>
   </g>
   <g id="patch_18">
    <path d="M 164.7 241.2 
L 164.7 201.6 
L 204.3 201.6 
L 164.7 241.2 
z
" clip-path="url(#p8f3f8292ff)" style="fill: none; stroke: #000000; stroke-linejoin: miter"/>
   </g>
   <g id="patch_19">
    <path d="M 204.3 241.2 
L 243.9 241.2 
L 243.9 201.6 
L 204.3 241.2 
z
" clip-path="url(#p8f3f8292ff)" style="fill: none; stroke: #000000; stroke-linejoin: miter"/>
   </g>
   <g id="patch_20">
    <path d="M 204.3 241.2 
L 204.3 201.6 
L 243.9 201.6 
L 204.3 241.2 
z
" clip-path="url(#p8f3f8292ff)" style="fill: none; stroke: #000000; stroke-linejoin: miter"/>
   </g>
   <g id="patch_21">
    <path d="M 243.9 241.2 
L 283.5 241.2 
L 283.5 201.6 
L 243.9 241.2 
z
" clip-path="url(#p8f3f8292ff)" style="fill: none; stroke: #000000; stroke-linejoin: miter"/>
   </g>
   <g id="patch_22">
    <path d="M 243.9 241.2 
L 243.9 201.6 
L 283.5 201.6 
L 243.9 241.2 
z
" clip-path="url(#p8f3f8292ff)" style="fill: none; stroke: #000000; stroke-linejoin: miter"/>
   </g>
   <g id="patch_23">
    <path d="M 85.5 201.6 
L 125.1 201.6 
L 125.1 162 
L 85.5 201.6 
z
" clip-path="url(#p8f3f8292ff)" style="fill: none; stroke: #000000; stroke-linejoin: miter"/>
   </g>
   <g id="patch_24">
    <path d="M 85.5 201.6 
L 85.5 162 
L 125.1 162 
L 85.5 201.6 
z
" clip-path="url(#p8f3f8292ff)" style="fill: none; stroke: #000000; stroke-linejoin: miter"/>
   </g>
   <g id="patch_25">
    <path d="M 125.1 201.6 
L 164.7 201.6 
L 164.7 162 
L 125.1 201.6 
z
" clip-path="url(#p8f3f8292ff)" style="fill: none; stroke: #000000; stroke-linejoin: miter"/>
   </g>
   <g id="patch_26">
    <path d="M 125.1 201.6 
L 125.1 162 
L 164.7 162 
L 125.1 201.6 
z
" clip-path="url(#p8f3f8292ff)" style="fill: none; stroke: #000000; stroke-linejoin: miter"/>
   </g>
   <g id="patch_27">
    <path d="M 164.7 201.6 
L 204.3 201.6 
L 204.3 162 
L 164.7 201.6 
z
" clip-path="url(#p8f3f8292ff)" style="fill: none; stroke: #000000; stroke-linejoin: miter"/>
   </g>
   <g id="patch_28">
    <path d="M 164.7 201.6 
L 164.7 162 
L 204.3 162 
L 164.7 201.6 
z
" clip-path="url(#p8f3f8292ff)" style="fill: none; stroke: #000000; stroke-linejoin: miter"/>
   </g>
   <g id="patch_29">
    <path d="M 204.3 201.6 
L 243.9 201.6 
L 243.9 162 
L 204.3 201.6 
z
" clip-path="url(#p8f3f8292ff)" style="fill: none; stroke: #000000; stroke-linejoin: miter"/>
   </g>
   <g id="patch_30">
    <path d="M 204.3 201.6 
L 204.3 162 
L 243.9 162 
L 204.3 201.6 
z
" clip-path="url(#p8f3f8292ff)" style="fill: none; stroke: #000000; stroke-linejoin: miter"/>
   </g>
   <g id="patch_31">
    <path d="M 243.9 201.6 
L 283.5 201.6 
L 283.5 162 
L 243.9 201.6 
z
" clip-path="url(#p8f3f8292ff)" style="fill: none; stroke: #000000; stroke-linejoin: miter"/>
   </g>
   <g id="patch_32">
    <path d="M 243.9 201.6 
L 243.9 162 
L 283.5 162 
L 243.9 201.6 
z
" clip-path="url(#p8f3f8292ff)" style="fill: none; stroke: #000000; stroke-linejoin: miter"/>
   </g>
   <g id="patch_33">
    <path d="M 85.5 162 
L 125.1 162 
L 125.1 122.4 
L 85.5 162 
z
" clip-path="url(#p8f3f8292ff)" style="fill: none; stroke: #000000; stroke-linejoin: miter"/>
   </g>
   <g id="patch_34">
    <path d="M 85.5 162 
L 85.5 122.4 
L 125.1 122.4 
L 85.5 162 
z
" clip-path="url(#p8f3f8292ff)" style="fill: none; stroke: #000000; stroke-linejoin: miter"/>
   </g>
   <g id="patch_35">
    <path d="M 125.1 162 
L 164.7 162 
L 164.7 122.4 
L 125.1 162 
z
" clip-path="url(#p8f3f8292ff)" style="fill: none; stroke: #000000; stroke-linejoin: miter"/>
   </g>
   <g id="patch_36">
    <path d="M 125.1 162 
L 125.1 122.4 
L 164.7 122.4 
L 125.1 162 
z
" clip-path="url(#p8f3f8292ff)" style="fill: none; stroke: #000000; stroke-linejoin: miter"/>
   </g>
   <g id="patch_37">
    <path d="M 164.7 162 
L 204.3 162 
L 204.3 122.4 
L 164.7 162 
z
" clip-path="url(#p8f3f8292ff)" style="fill: none; stroke: #000000; stroke-linejoin: miter"/>
   </g>
   <g id="patch_38">
    <path d="M 164.7 162 
L 164.7 122.4 
L 204.3 122.4 
L 164.7 162 
z
" clip-path="url(#p8f3f8292ff)" style="fill: none; stroke: #000000; stroke-linejoin: miter"/>
   </g>
   <g id="patch_39">
    <path d="M 204.3 162 
L 243.9 162 
L 243.9 122.4 
L 204.3 162 
z
" clip-path="url(#p8f3f8292ff)" style="fill: none; stroke: #000000; stroke-linejoin: miter"/>
   </g>
   <g id="patch_40">
    <path d="M 204.3 162 
L 204.3 122.4 
L 243.9 122.4 
L 204.3 162 
z
" clip-path="url(#p8f3f8292ff)" style="fill: none; stroke: #000000; stroke-linejoin: miter"/>
   </g>
   <g id="patch_41">
    <path d="M 243.9 162 
L 283.5 162 
L 283.5 122.4 
L 243.9 162 
z
" clip-path="url(#p8f3f8292ff)" style="fill: none; stroke: #000000; stroke-linejoin: miter"/>
   </g>
   <g id="patch_42">
    <path d="M 243.9 162 
L 243.9 122.4 
L 283.5 122.4 
L 243.9 162 
z
" clip-path="url(#p8f3f8292ff)" style="fill: none; stroke: #000000; stroke-linejoin: miter"/>
   </g>
   <g id="patch_43">
    <path d="M 85.5 122.4 
L 125.1 122.4 
L 125.1 82.8 
L 85.5 122.4 
z
" clip-path="url(#p8f3f8292ff)" style="fill: none; stroke: #000000; stroke-linejoin: miter"/>
   </g>
   <g id="patch_44">
    <path d="M 85.5 122.4 
L 85.5 82.8 
L 125.1 82.8 
L 85.5 122.4 
z
" clip-path="url(#p8f3f8292ff)" style="fill: none; stroke: #000000; stroke-linejoin: miter"/>
   </g>
   <g id="patch_45">
    <path d="M 125.1 122.4 
L 164.7 122.4 
L 164.7 82.8 
L 125.1 122.4 
z
" clip-path="url(#p8f3f8292ff)" style="fill: none; stroke: #000000; stroke-linejoin: miter"/>
   </g>
   <g id="patch_46">
    <path d="M 125.1 122.4 
L 125.1 82.8 
L 164.7 82.8 
L 125.1 122.4 
z
" clip-path="url(#p8f3f8292ff)" style="fill: none; stroke: #000000; stroke-linejoin: miter"/>
   </g>
   <g id="patch_47">
    <path d="M 164.7 122.4 
L 204.3 122.4 
L 204.3 82.8 
L 164.7 122.4 
z
" clip-path="url(#p8f3f8292ff)" style="fill: none; stroke: #000000; stroke-linejoin: miter"/>
   </g>
   <g id="patch_48">
    <path d="M 164.7 122.4 
L 164.7 82.8 
L 204.3 82.8 
L 164.7 122.4 
z
" clip-path="url(#p8f3f8292ff)" style="fill: none; stroke: #000000; stroke-linejoin: miter"/>
   </g>
   <g id="patch_49">
    <path d="M 204.3 122.4 
L 243.9 122.4 
L 243.9 82.8 
L 204.3 122.4 
z
" clip-path="url(#p8f3f8292ff)" style="fill: none; stroke: #000000; stroke-linejoin: miter"/>
   </g>
   <g id="patch_50">
    <path d="M 204.3 122.4 
L 204.3 82.8 
L 243.9 82.8 
L 204.3 122.4 
z
" clip-path="url(#p8f3f8292ff)" style="fill: none; stroke: #000000; stroke-linejoin: miter"/>
   </g>
   <g id="patch_51">
    <path d="M 243.9 122.4 
L 283.5 122.4 
L 283.5 82.8 
L 243.9 122.4 
z
" clip-path="url(#p8f3f8292ff)" style="fill: none; stroke: #000000; stroke-linejoin: miter"/>
   </g>
   <g id="patch_52">
    <path d="M 243.9 122.4 
L 243.9 82.8 
L 283.5 82.8 
L 243.9 122.4 
z
" clip-path="url(#p8f3f8292ff)" style="fill: none; stroke: #000000; stroke-linejoin: miter"/>
   </g>
   <g id="patch_53">
    <path d="M 45.9 280.8 
L 323.1 280.8 
L 45.9 280.8 
z
" clip-path="url(#p8f3f8292ff)" style="fill: none; stroke: #000000; stroke-opacity: 0.5; stroke-linejoin: miter"/>
   </g>
   <g id="patch_54">
    <path d="M 85.5 320.4 
L 85.5 43.2 
L 85.5 320.4 
z
" clip-path="url(#p8f3f8292ff)" style="fill: none; stroke: #000000; stroke-opacity: 0.5; stroke-linejoin: miter"/>
   </g>
   <g id="matplotlib.axis_1"/>
   <g id="matplotlib.axis_2"/>
   <g id="patch_55">
    <path d="M 45.9 320.4 
L 45.9 43.2 
" style="fill: none; stroke: #000000; stroke-width: 0.8; stroke-linejoin: miter; stroke-linecap: square"/>
   </g>
   <g id="patch_56">
    <path d="M 323.1 320.4 
L 323.1 43.2 
" style="fill: none; stroke: #000000; stroke-width: 0.8; stroke-linejoin: miter; stroke-linecap: square"/>
   </g>
   <g id="patch_57">
    <path d="M 45.9 320.4 
L 323.1 320.4 
" style="fill: none; stroke: #000000; stroke-width: 0.8; stroke-linejoin: miter; stroke-linecap: square"/>
   </g>
   <g id="patch_58">
    <path d="M 45.9 43.2 
L 323.1 43.2 
" style="fill: none; stroke: #000000; stroke-width: 0.8; stroke-linejoin: miter; stroke-linecap: square"/>
   </g>
   <g id="text_1">
    <!-- 0 -->
    <g transform="translate(82.31875 296.318438) scale(0.1 -0.1)">
     <defs>
      <path id="DejaVuSans-30" d="M 2034 4250 
Q 1547 4250 1301 3770 
Q 1056 3291 1056 2328 
Q 1056 1369 1301 889 
Q 1547 409 2034 409 
Q 2525 409 2770 889 
Q 3016 1369 3016 2328 
Q 3016 3291 2770 3770 
Q 2525 4250 2034 4250 
z
M 2034 4750 
Q 2819 4750 3233 4129 
Q 3647 3509 3647 2328 
Q 3647 1150 3233 529 
Q 2819 -91 2034 -91 
Q 1250 -91 836 529 
Q 422 1150 422 2328 
Q 422 3509 836 4129 
Q 1250 4750 2034 4750 
z
" transform="scale(0.015625)"/>
     </defs>
     <use xlink:href="#DejaVuSans-30"/>
    </g>
   </g>
   <g id="text_2">
    <!-- 0 -->
    <g transform="translate(71.2175 283.559375) scale(0.1 -0.1)">
     <use xlink:href="#DejaVuSans-30"/>
    </g>
   </g>
   <g id="text_3">
    <!-- 1 -->
    <g transform="translate(121.91875 296.318438) scale(0.1 -0.1)">
     <defs>
      <path id="DejaVuSans-31" d="M 794 531 
L 1825 531 
L 1825 4091 
L 703 3866 
L 703 4441 
L 1819 4666 
L 2450 4666 
L 2450 531 
L 3481 531 
L 3481 0 
L 794 0 
L 794 531 
z
" transform="scale(0.015625)"/>
     </defs>
     <use xlink:href="#DejaVuSans-31"/>
    </g>
   </g>
   <g id="text_4">
    <!-- 1 -->
    <g transform="translate(71.2175 243.959375) scale(0.1 -0.1)">
     <use xlink:href="#DejaVuSans-31"/>
    </g>
   </g>
   <g id="text_5">
    <!-- 2 -->
    <g transform="translate(161.51875 296.318438) scale(0.1 -0.1)">
     <defs>
      <path id="DejaVuSans-32" d="M 1228 531 
L 3431 531 
L 3431 0 
L 469 0 
L 469 531 
Q 828 903 1448 1529 
Q 2069 2156 2228 2338 
Q 2531 2678 2651 2914 
Q 2772 3150 2772 3378 
Q 2772 3750 2511 3984 
Q 2250 4219 1831 4219 
Q 1534 4219 1204 4116 
Q 875 4013 500 3803 
L 500 4441 
Q 881 4594 1212 4672 
Q 1544 4750 1819 4750 
Q 2544 4750 2975 4387 
Q 3406 4025 3406 3419 
Q 3406 3131 3298 2873 
Q 3191 2616 2906 2266 
Q 2828 2175 2409 1742 
Q 1991 1309 1228 531 
z
" transform="scale(0.015625)"/>
     </defs>
     <use xlink:href="#DejaVuSans-32"/>
    </g>
   </g>
   <g id="text_6">
    <!-- 2 -->
    <g transform="translate(71.2175 204.359375) scale(0.1 -0.1)">
     <use xlink:href="#DejaVuSans-32"/>
    </g>
   </g>
   <g id="text_7">
    <!-- 3 -->
    <g transform="translate(201.11875 296.318438) scale(0.1 -0.1)">
     <defs>
      <path id="DejaVuSans-33" d="M 2597 2516 
Q 3050 2419 3304 2112 
Q 3559 1806 3559 1356 
Q 3559 666 3084 287 
Q 2609 -91 1734 -91 
Q 1441 -91 1130 -33 
Q 819 25 488 141 
L 488 750 
Q 750 597 1062 519 
Q 1375 441 1716 441 
Q 2309 441 2620 675 
Q 2931 909 2931 1356 
Q 2931 1769 2642 2001 
Q 2353 2234 1838 2234 
L 1294 2234 
L 1294 2753 
L 1863 2753 
Q 2328 2753 2575 2939 
Q 2822 3125 2822 3475 
Q 2822 3834 2567 4026 
Q 2313 4219 1838 4219 
Q 1578 4219 1281 4162 
Q 984 4106 628 3988 
L 628 4550 
Q 988 4650 1302 4700 
Q 1616 4750 1894 4750 
Q 2613 4750 3031 4423 
Q 3450 4097 3450 3541 
Q 3450 3153 3228 2886 
Q 3006 2619 2597 2516 
z
" transform="scale(0.015625)"/>
     </defs>
     <use xlink:href="#DejaVuSans-33"/>
    </g>
   </g>
   <g id="text_8">
    <!-- 3 -->
    <g transform="translate(71.2175 164.759375) scale(0.1 -0.1)">
     <use xlink:href="#DejaVuSans-33"/>
    </g>
   </g>
   <g id="text_9">
    <!-- 4 -->
    <g transform="translate(240.71875 296.318438) scale(0.1 -0.1)">
     <defs>
      <path id="DejaVuSans-34" d="M 2419 4116 
L 825 1625 
L 2419 1625 
L 2419 4116 
z
M 2253 4666 
L 3047 4666 
L 3047 1625 
L 3713 1625 
L 3713 1100 
L 3047 1100 
L 3047 0 
L 2419 0 
L 2419 1100 
L 313 1100 
L 313 1709 
L 2253 4666 
z
" transform="scale(0.015625)"/>
     </defs>
     <use xlink:href="#DejaVuSans-34"/>
    </g>
   </g>
   <g id="text_10">
    <!-- 4 -->
    <g transform="translate(71.2175 125.159375) scale(0.1 -0.1)">
     <use xlink:href="#DejaVuSans-34"/>
    </g>
   </g>
   <g id="text_11">
    <!-- 5 -->
    <g transform="translate(280.31875 296.318438) scale(0.1 -0.1)">
     <defs>
      <path id="DejaVuSans-35" d="M 691 4666 
L 3169 4666 
L 3169 4134 
L 1269 4134 
L 1269 2991 
Q 1406 3038 1543 3061 
Q 1681 3084 1819 3084 
Q 2600 3084 3056 2656 
Q 3513 2228 3513 1497 
Q 3513 744 3044 326 
Q 2575 -91 1722 -91 
Q 1428 -91 1123 -41 
Q 819 9 494 109 
L 494 744 
Q 775 591 1075 516 
Q 1375 441 1709 441 
Q 2250 441 2565 725 
Q 2881 1009 2881 1497 
Q 2881 1984 2565 2268 
Q 2250 2553 1709 2553 
Q 1456 2553 1204 2497 
Q 953 2441 691 2322 
L 691 4666 
z
" transform="scale(0.015625)"/>
     </defs>
     <use xlink:href="#DejaVuSans-35"/>
    </g>
   </g>
   <g id="text_12">
    <!-- 5 -->
    <g transform="translate(71.2175 85.559375) scale(0.1 -0.1)">
     <use xlink:href="#DejaVuSans-35"/>
    </g>
   </g>
   <g id="text_13">
    <!-- x -->
    <g transform="translate(309.26125 276.640625) scale(0.2 -0.2)">
     <defs>
      <path id="DejaVuSans-78" d="M 3513 3500 
L 2247 1797 
L 3578 0 
L 2900 0 
L 1881 1375 
L 863 0 
L 184 0 
L 1544 1831 
L 300 3500 
L 978 3500 
L 1906 2253 
L 2834 3500 
L 3513 3500 
z
" transform="scale(0.015625)"/>
     </defs>
     <use xlink:href="#DejaVuSans-78"/>
    </g>
   </g>
   <g id="text_14">
    <!-- y -->
    <g transform="translate(71.66125 66.316875) scale(0.2 -0.2)">
     <defs>
      <path id="DejaVuSans-79" d="M 2059 -325 
Q 1816 -950 1584 -1140 
Q 1353 -1331 966 -1331 
L 506 -1331 
L 506 -850 
L 844 -850 
Q 1081 -850 1212 -737 
Q 1344 -625 1503 -206 
L 1606 56 
L 191 3500 
L 800 3500 
L 1894 763 
L 2988 3500 
L 3597 3500 
L 2059 -325 
z
" transform="scale(0.015625)"/>
     </defs>
     <use xlink:href="#DejaVuSans-79"/>
    </g>
   </g>
  </g>
 </g>
 <defs>
  <clipPath id="p8f3f8292ff">
   <rect x="45.9" y="43.2" width="277.2" height="277.2"/>
  </clipPath>
 </defs>
</svg>
