<?xml version="1.0" encoding="utf-8" standalone="no"?>
<!DOCTYPE svg PUBLIC "-//W3C//DTD SVG 1.1//EN"
  "http://www.w3.org/Graphics/SVG/1.1/DTD/svg11.dtd">
<svg xmlns:xlink="http://www.w3.org/1999/xlink" width="576pt" height="288pt" viewBox="0 0 576 288" xmlns="http://www.w3.org/2000/svg" version="1.1">
 <metadata>
  <rdf:RDF xmlns:dc="http://purl.org/dc/elements/1.1/" xmlns:cc="http://creativecommons.org/ns#" xmlns:rdf="http://www.w3.org/1999/02/22-rdf-syntax-ns#">
   <cc:Work>
    <dc:type rdf:resource="http://purl.org/dc/dcmitype/StillImage"/>
    <dc:date>2025-01-29T16:26:06.576563</dc:date>
    <dc:format>image/svg+xml</dc:format>
    <dc:creator>
     <cc:Agent>
      <dc:title>Matplotlib v3.6.3, https://matplotlib.org/</dc:title>
     </cc:Agent>
    </dc:creator>
   </cc:Work>
  </rdf:RDF>
 </metadata>
 <defs>
  <style type="text/css">*{stroke-linejoin: round; stroke-linecap: butt}</style>
 </defs>
 <g id="figure_1">
  <g id="patch_1">
   <path d="M 0 288 
L 576 288 
L 576 0 
L 0 0 
z
" style="fill: #ffffff"/>
  </g>
  <g id="axes_1">
   <g id="patch_2">
    <path d="M 72 231.286154 
L 243.692308 231.286154 
L 243.692308 59.593846 
L 72 59.593846 
z
" style="fill: #ffffff"/>
   </g>
   <g id="patch_3">
    <path d="M 72 207.604456 
L 243.692308 207.604456 
L 72 207.604456 
z
" clip-path="url(#pa76764cd43)" style="fill: none; stroke: #000000; stroke-opacity: 0.5; stroke-linejoin: miter"/>
   </g>
   <g id="patch_4">
    <path d="M 95.681698 231.286154 
L 95.681698 59.593846 
L 95.681698 231.286154 
z
" clip-path="url(#pa76764cd43)" style="fill: none; stroke: #000000; stroke-opacity: 0.5; stroke-linejoin: miter"/>
   </g>
   <g id="matplotlib.axis_1"/>
   <g id="matplotlib.axis_2"/>
   <g id="line2d_1">
    <defs>
     <path id="ma30bc6ce2f" d="M 0 1.5 
C 0.397805 1.5 0.77937 1.341951 1.06066 1.06066 
C 1.341951 0.77937 1.5 0.397805 1.5 0 
C 1.5 -0.397805 1.341951 -0.77937 1.06066 -1.06066 
C 0.77937 -1.341951 0.397805 -1.5 0 -1.5 
C -0.397805 -1.5 -0.77937 -1.341951 -1.06066 -1.06066 
C -1.341951 -0.77937 -1.5 -0.397805 -1.5 0 
C -1.5 0.397805 -1.341951 0.77937 -1.06066 1.06066 
C -0.77937 1.341951 -0.397805 1.5 0 1.5 
z
" style="stroke: #1f77b4"/>
    </defs>
    <g clip-path="url(#pa76764cd43)">
     <use xlink:href="#ma30bc6ce2f" x="160.806366" y="154.320637" style="fill: #1f77b4; stroke: #1f77b4"/>
    </g>
   </g>
   <g id="patch_5">
    <path d="M 72 231.286154 
L 72 59.593846 
" style="fill: none; stroke: #000000; stroke-width: 0.8; stroke-linejoin: miter; stroke-linecap: square"/>
   </g>
   <g id="patch_6">
    <path d="M 243.692308 231.286154 
L 243.692308 59.593846 
" style="fill: none; stroke: #000000; stroke-width: 0.8; stroke-linejoin: miter; stroke-linecap: square"/>
   </g>
   <g id="patch_7">
    <path d="M 72 231.286154 
L 243.692308 231.286154 
" style="fill: none; stroke: #000000; stroke-width: 0.8; stroke-linejoin: miter; stroke-linecap: square"/>
   </g>
   <g id="patch_8">
    <path d="M 72 59.593846 
L 243.692308 59.593846 
" style="fill: none; stroke: #000000; stroke-width: 0.8; stroke-linejoin: miter; stroke-linecap: square"/>
   </g>
   <g id="text_1">
    <!-- P(x,y) -->
    <g transform="translate(166.72679 150.993137) scale(0.16 -0.16)">
     <defs>
      <path id="DejaVuSans-50" d="M 1259 4147 
L 1259 2394 
L 2053 2394 
Q 2494 2394 2734 2622 
Q 2975 2850 2975 3272 
Q 2975 3691 2734 3919 
Q 2494 4147 2053 4147 
L 1259 4147 
z
M 628 4666 
L 2053 4666 
Q 2838 4666 3239 4311 
Q 3641 3956 3641 3272 
Q 3641 2581 3239 2228 
Q 2838 1875 2053 1875 
L 1259 1875 
L 1259 0 
L 628 0 
L 628 4666 
z
" transform="scale(0.015625)"/>
      <path id="DejaVuSans-28" d="M 1984 4856 
Q 1566 4138 1362 3434 
Q 1159 2731 1159 2009 
Q 1159 1288 1364 580 
Q 1569 -128 1984 -844 
L 1484 -844 
Q 1016 -109 783 600 
Q 550 1309 550 2009 
Q 550 2706 781 3412 
Q 1013 4119 1484 4856 
L 1984 4856 
z
" transform="scale(0.015625)"/>
      <path id="DejaVuSans-78" d="M 3513 3500 
L 2247 1797 
L 3578 0 
L 2900 0 
L 1881 1375 
L 863 0 
L 184 0 
L 1544 1831 
L 300 3500 
L 978 3500 
L 1906 2253 
L 2834 3500 
L 3513 3500 
z
" transform="scale(0.015625)"/>
      <path id="DejaVuSans-2c" d="M 750 794 
L 1409 794 
L 1409 256 
L 897 -744 
L 494 -744 
L 750 256 
L 750 794 
z
" transform="scale(0.015625)"/>
      <path id="DejaVuSans-79" d="M 2059 -325 
Q 1816 -950 1584 -1140 
Q 1353 -1331 966 -1331 
L 506 -1331 
L 506 -850 
L 844 -850 
Q 1081 -850 1212 -737 
Q 1344 -625 1503 -206 
L 1606 56 
L 191 3500 
L 800 3500 
L 1894 763 
L 2988 3500 
L 3597 3500 
L 2059 -325 
z
" transform="scale(0.015625)"/>
      <path id="DejaVuSans-29" d="M 513 4856 
L 1013 4856 
Q 1481 4119 1714 3412 
Q 1947 2706 1947 2009 
Q 1947 1309 1714 600 
Q 1481 -109 1013 -844 
L 513 -844 
Q 928 -128 1133 580 
Q 1338 1288 1338 2009 
Q 1338 2731 1133 3434 
Q 928 4138 513 4856 
z
" transform="scale(0.015625)"/>
     </defs>
     <use xlink:href="#DejaVuSans-50"/>
     <use xlink:href="#DejaVuSans-28" x="60.302734"/>
     <use xlink:href="#DejaVuSans-78" x="99.316406"/>
     <use xlink:href="#DejaVuSans-2c" x="158.496094"/>
     <use xlink:href="#DejaVuSans-79" x="190.283203"/>
     <use xlink:href="#DejaVuSans-29" x="249.462891"/>
    </g>
   </g>
   <g id="text_2">
    <!-- 0 -->
    <g transform="translate(92.500448 218.163106) scale(0.1 -0.1)">
     <defs>
      <path id="DejaVuSans-30" d="M 2034 4250 
Q 1547 4250 1301 3770 
Q 1056 3291 1056 2328 
Q 1056 1369 1301 889 
Q 1547 409 2034 409 
Q 2525 409 2770 889 
Q 3016 1369 3016 2328 
Q 3016 3291 2770 3770 
Q 2525 4250 2034 4250 
z
M 2034 4750 
Q 2819 4750 3233 4129 
Q 3647 3509 3647 2328 
Q 3647 1150 3233 529 
Q 2819 -91 2034 -91 
Q 1250 -91 836 529 
Q 422 1150 422 2328 
Q 422 3509 836 4129 
Q 1250 4750 2034 4750 
z
" transform="scale(0.015625)"/>
     </defs>
     <use xlink:href="#DejaVuSans-30"/>
    </g>
   </g>
   <g id="text_3">
    <!-- 0 -->
    <g transform="translate(86.358985 210.363831) scale(0.1 -0.1)">
     <use xlink:href="#DejaVuSans-30"/>
    </g>
   </g>
   <g id="text_4">
    <!-- 1 -->
    <g transform="translate(122.10257 218.163106) scale(0.1 -0.1)">
     <defs>
      <path id="DejaVuSans-31" d="M 794 531 
L 1825 531 
L 1825 4091 
L 703 3866 
L 703 4441 
L 1819 4666 
L 2450 4666 
L 2450 531 
L 3481 531 
L 3481 0 
L 794 0 
L 794 531 
z
" transform="scale(0.015625)"/>
     </defs>
     <use xlink:href="#DejaVuSans-31"/>
    </g>
   </g>
   <g id="text_5">
    <!-- 1 -->
    <g transform="translate(86.358985 180.761709) scale(0.1 -0.1)">
     <use xlink:href="#DejaVuSans-31"/>
    </g>
   </g>
   <g id="text_6">
    <!-- 2 -->
    <g transform="translate(151.704692 218.163106) scale(0.1 -0.1)">
     <defs>
      <path id="DejaVuSans-32" d="M 1228 531 
L 3431 531 
L 3431 0 
L 469 0 
L 469 531 
Q 828 903 1448 1529 
Q 2069 2156 2228 2338 
Q 2531 2678 2651 2914 
Q 2772 3150 2772 3378 
Q 2772 3750 2511 3984 
Q 2250 4219 1831 4219 
Q 1534 4219 1204 4116 
Q 875 4013 500 3803 
L 500 4441 
Q 881 4594 1212 4672 
Q 1544 4750 1819 4750 
Q 2544 4750 2975 4387 
Q 3406 4025 3406 3419 
Q 3406 3131 3298 2873 
Q 3191 2616 2906 2266 
Q 2828 2175 2409 1742 
Q 1991 1309 1228 531 
z
" transform="scale(0.015625)"/>
     </defs>
     <use xlink:href="#DejaVuSans-32"/>
    </g>
   </g>
   <g id="text_7">
    <!-- 2 -->
    <g transform="translate(86.358985 151.159587) scale(0.1 -0.1)">
     <use xlink:href="#DejaVuSans-32"/>
    </g>
   </g>
   <g id="text_8">
    <!-- 3 -->
    <g transform="translate(181.306814 218.163106) scale(0.1 -0.1)">
     <defs>
      <path id="DejaVuSans-33" d="M 2597 2516 
Q 3050 2419 3304 2112 
Q 3559 1806 3559 1356 
Q 3559 666 3084 287 
Q 2609 -91 1734 -91 
Q 1441 -91 1130 -33 
Q 819 25 488 141 
L 488 750 
Q 750 597 1062 519 
Q 1375 441 1716 441 
Q 2309 441 2620 675 
Q 2931 909 2931 1356 
Q 2931 1769 2642 2001 
Q 2353 2234 1838 2234 
L 1294 2234 
L 1294 2753 
L 1863 2753 
Q 2328 2753 2575 2939 
Q 2822 3125 2822 3475 
Q 2822 3834 2567 4026 
Q 2313 4219 1838 4219 
Q 1578 4219 1281 4162 
Q 984 4106 628 3988 
L 628 4550 
Q 988 4650 1302 4700 
Q 1616 4750 1894 4750 
Q 2613 4750 3031 4423 
Q 3450 4097 3450 3541 
Q 3450 3153 3228 2886 
Q 3006 2619 2597 2516 
z
" transform="scale(0.015625)"/>
     </defs>
     <use xlink:href="#DejaVuSans-33"/>
    </g>
   </g>
   <g id="text_9">
    <!-- 3 -->
    <g transform="translate(86.358985 121.557465) scale(0.1 -0.1)">
     <use xlink:href="#DejaVuSans-33"/>
    </g>
   </g>
   <g id="text_10">
    <!-- 4 -->
    <g transform="translate(210.908936 218.163106) scale(0.1 -0.1)">
     <defs>
      <path id="DejaVuSans-34" d="M 2419 4116 
L 825 1625 
L 2419 1625 
L 2419 4116 
z
M 2253 4666 
L 3047 4666 
L 3047 1625 
L 3713 1625 
L 3713 1100 
L 3047 1100 
L 3047 0 
L 2419 0 
L 2419 1100 
L 313 1100 
L 313 1709 
L 2253 4666 
z
" transform="scale(0.015625)"/>
     </defs>
     <use xlink:href="#DejaVuSans-34"/>
    </g>
   </g>
   <g id="text_11">
    <!-- 4 -->
    <g transform="translate(86.358985 91.955343) scale(0.1 -0.1)">
     <use xlink:href="#DejaVuSans-34"/>
    </g>
   </g>
   <g id="text_12">
    <!-- x -->
    <g transform="translate(234.222308 219.761956) scale(0.16 -0.16)">
     <use xlink:href="#DejaVuSans-78"/>
    </g>
   </g>
   <g id="text_13">
    <!-- y -->
    <g transform="translate(86.211698 71.751346) scale(0.16 -0.16)">
     <use xlink:href="#DejaVuSans-79"/>
    </g>
   </g>
  </g>
  <g id="axes_2">
   <g id="patch_9">
    <path d="M 346.707692 231.286154 
L 518.4 231.286154 
L 518.4 59.593846 
L 346.707692 59.593846 
z
" style="fill: #ffffff"/>
   </g>
   <g id="patch_10">
    <path d="M 459.195756 118.79809 
L 488.797878 118.79809 
L 488.797878 89.195968 
L 459.195756 118.79809 
L 459.195756 89.195968 
L 488.797878 89.195968 
" clip-path="url(#pdc8be7ea5d)" style="fill: none; stroke: #000000; stroke-linejoin: miter"/>
   </g>
   <g id="patch_11">
    <path d="M 459.195756 118.79809 
L 488.797878 118.79809 
L 488.797878 89.195968 
" clip-path="url(#pdc8be7ea5d)" style="fill-opacity: 0.2; stroke: #000000; stroke-linejoin: miter"/>
   </g>
   <g id="patch_12">
    <path d="M 346.707692 207.604456 
L 518.4 207.604456 
L 346.707692 207.604456 
z
" clip-path="url(#pdc8be7ea5d)" style="fill: none; stroke: #000000; stroke-opacity: 0.5; stroke-linejoin: miter"/>
   </g>
   <g id="patch_13">
    <path d="M 370.38939 231.286154 
L 370.38939 59.593846 
L 370.38939 231.286154 
z
" clip-path="url(#pdc8be7ea5d)" style="fill: none; stroke: #000000; stroke-opacity: 0.5; stroke-linejoin: miter"/>
   </g>
   <g id="matplotlib.axis_3"/>
   <g id="matplotlib.axis_4"/>
   <g id="line2d_2">
    <g clip-path="url(#pdc8be7ea5d)">
     <use xlink:href="#ma30bc6ce2f" x="478.854573" y="110.980122" style="fill: #1f77b4; stroke: #1f77b4"/>
    </g>
   </g>
   <g id="patch_14">
    <path d="M 346.707692 231.286154 
L 346.707692 59.593846 
" style="fill: none; stroke: #000000; stroke-width: 0.8; stroke-linejoin: miter; stroke-linecap: square"/>
   </g>
   <g id="patch_15">
    <path d="M 518.4 231.286154 
L 518.4 59.593846 
" style="fill: none; stroke: #000000; stroke-width: 0.8; stroke-linejoin: miter; stroke-linecap: square"/>
   </g>
   <g id="patch_16">
    <path d="M 346.707692 231.286154 
L 518.4 231.286154 
" style="fill: none; stroke: #000000; stroke-width: 0.8; stroke-linejoin: miter; stroke-linecap: square"/>
   </g>
   <g id="patch_17">
    <path d="M 346.707692 59.593846 
L 518.4 59.593846 
" style="fill: none; stroke: #000000; stroke-width: 0.8; stroke-linejoin: miter; stroke-linecap: square"/>
   </g>
   <g id="text_14">
    <!-- P'(x',y') -->
    <g transform="translate(490.695422 115.395122) scale(0.16 -0.16)">
     <defs>
      <path id="DejaVuSans-27" d="M 1147 4666 
L 1147 2931 
L 616 2931 
L 616 4666 
L 1147 4666 
z
" transform="scale(0.015625)"/>
     </defs>
     <use xlink:href="#DejaVuSans-50"/>
     <use xlink:href="#DejaVuSans-27" x="60.302734"/>
     <use xlink:href="#DejaVuSans-28" x="87.792969"/>
     <use xlink:href="#DejaVuSans-78" x="126.806641"/>
     <use xlink:href="#DejaVuSans-27" x="185.986328"/>
     <use xlink:href="#DejaVuSans-2c" x="213.476562"/>
     <use xlink:href="#DejaVuSans-79" x="245.263672"/>
     <use xlink:href="#DejaVuSans-27" x="304.443359"/>
     <use xlink:href="#DejaVuSans-29" x="331.933594"/>
    </g>
   </g>
   <g id="text_15">
    <!-- $(x'_0,y'_0)$ -->
    <g transform="translate(419.495756 126.59809) scale(0.1 -0.1)">
     <defs>
      <path id="DejaVuSans-Oblique-78" d="M 3841 3500 
L 2234 1784 
L 3219 0 
L 2559 0 
L 1819 1388 
L 531 0 
L -166 0 
L 1556 1844 
L 641 3500 
L 1300 3500 
L 1972 2234 
L 3144 3500 
L 3841 3500 
z
" transform="scale(0.015625)"/>
      <path id="Cmsy10-30" d="M 225 347 
Q 184 359 184 409 
L 966 3316 
Q 1003 3434 1093 3506 
Q 1184 3578 1300 3578 
Q 1450 3578 1564 3479 
Q 1678 3381 1678 3231 
Q 1678 3166 1644 3084 
L 488 319 
Q 466 275 428 275 
Q 394 275 320 306 
Q 247 338 225 347 
z
" transform="scale(0.015625)"/>
      <path id="DejaVuSans-Oblique-79" d="M 1588 -325 
Q 1188 -997 936 -1164 
Q 684 -1331 294 -1331 
L -159 -1331 
L -63 -850 
L 269 -850 
Q 509 -850 678 -719 
Q 847 -588 1056 -206 
L 1234 128 
L 459 3500 
L 1069 3500 
L 1650 819 
L 3256 3500 
L 3859 3500 
L 1588 -325 
z
" transform="scale(0.015625)"/>
     </defs>
     <use xlink:href="#DejaVuSans-28" transform="translate(0 0.584375)"/>
     <use xlink:href="#DejaVuSans-Oblique-78" transform="translate(39.013672 0.584375)"/>
     <use xlink:href="#Cmsy10-30" transform="translate(102.659505 38.865625) scale(0.7)"/>
     <use xlink:href="#DejaVuSans-30" transform="translate(125.594076 -15.821875) scale(0.7)"/>
     <use xlink:href="#DejaVuSans-2c" transform="translate(172.864583 0.584375)"/>
     <use xlink:href="#DejaVuSans-Oblique-79" transform="translate(224.134115 0.584375)"/>
     <use xlink:href="#Cmsy10-30" transform="translate(287.779948 38.865625) scale(0.7)"/>
     <use xlink:href="#DejaVuSans-30" transform="translate(310.714518 -15.821875) scale(0.7)"/>
     <use xlink:href="#DejaVuSans-29" transform="translate(357.985026 0.584375)"/>
    </g>
   </g>
   <g id="text_16">
    <!-- $(x'_1,y'_1)$ -->
    <g transform="translate(488.797878 126.59809) scale(0.1 -0.1)">
     <use xlink:href="#DejaVuSans-28" transform="translate(0 0.584375)"/>
     <use xlink:href="#DejaVuSans-Oblique-78" transform="translate(39.013672 0.584375)"/>
     <use xlink:href="#Cmsy10-30" transform="translate(102.659505 38.865625) scale(0.7)"/>
     <use xlink:href="#DejaVuSans-31" transform="translate(125.594076 -15.821875) scale(0.7)"/>
     <use xlink:href="#DejaVuSans-2c" transform="translate(172.864583 0.584375)"/>
     <use xlink:href="#DejaVuSans-Oblique-79" transform="translate(224.134115 0.584375)"/>
     <use xlink:href="#Cmsy10-30" transform="translate(287.779948 38.865625) scale(0.7)"/>
     <use xlink:href="#DejaVuSans-31" transform="translate(310.714518 -15.821875) scale(0.7)"/>
     <use xlink:href="#DejaVuSans-29" transform="translate(357.985026 0.584375)"/>
    </g>
   </g>
   <g id="text_17">
    <!-- $(x'_3,y'_3)$ -->
    <g transform="translate(488.797878 87.095968) scale(0.1 -0.1)">
     <use xlink:href="#DejaVuSans-28" transform="translate(0 0.584375)"/>
     <use xlink:href="#DejaVuSans-Oblique-78" transform="translate(39.013672 0.584375)"/>
     <use xlink:href="#Cmsy10-30" transform="translate(102.659505 38.865625) scale(0.7)"/>
     <use xlink:href="#DejaVuSans-33" transform="translate(125.594076 -15.821875) scale(0.7)"/>
     <use xlink:href="#DejaVuSans-2c" transform="translate(172.864583 0.584375)"/>
     <use xlink:href="#DejaVuSans-Oblique-79" transform="translate(224.134115 0.584375)"/>
     <use xlink:href="#Cmsy10-30" transform="translate(287.779948 38.865625) scale(0.7)"/>
     <use xlink:href="#DejaVuSans-33" transform="translate(310.714518 -15.821875) scale(0.7)"/>
     <use xlink:href="#DejaVuSans-29" transform="translate(357.985026 0.584375)"/>
    </g>
   </g>
   <g id="text_18">
    <!-- $(x'_2,y'_2)$ -->
    <g transform="translate(419.495756 87.095968) scale(0.1 -0.1)">
     <use xlink:href="#DejaVuSans-28" transform="translate(0 0.584375)"/>
     <use xlink:href="#DejaVuSans-Oblique-78" transform="translate(39.013672 0.584375)"/>
     <use xlink:href="#Cmsy10-30" transform="translate(102.659505 38.865625) scale(0.7)"/>
     <use xlink:href="#DejaVuSans-32" transform="translate(125.594076 -15.821875) scale(0.7)"/>
     <use xlink:href="#DejaVuSans-2c" transform="translate(172.864583 0.584375)"/>
     <use xlink:href="#DejaVuSans-Oblique-79" transform="translate(224.134115 0.584375)"/>
     <use xlink:href="#Cmsy10-30" transform="translate(287.779948 38.865625) scale(0.7)"/>
     <use xlink:href="#DejaVuSans-32" transform="translate(310.714518 -15.821875) scale(0.7)"/>
     <use xlink:href="#DejaVuSans-29" transform="translate(357.985026 0.584375)"/>
    </g>
   </g>
   <g id="text_19">
    <!-- 0 -->
    <g transform="translate(367.20814 218.163106) scale(0.1 -0.1)">
     <use xlink:href="#DejaVuSans-30"/>
    </g>
   </g>
   <g id="text_20">
    <!-- 0 -->
    <g transform="translate(361.066678 210.363831) scale(0.1 -0.1)">
     <use xlink:href="#DejaVuSans-30"/>
    </g>
   </g>
   <g id="text_21">
    <!-- 1 -->
    <g transform="translate(396.810262 218.163106) scale(0.1 -0.1)">
     <use xlink:href="#DejaVuSans-31"/>
    </g>
   </g>
   <g id="text_22">
    <!-- 1 -->
    <g transform="translate(361.066678 180.761709) scale(0.1 -0.1)">
     <use xlink:href="#DejaVuSans-31"/>
    </g>
   </g>
   <g id="text_23">
    <!-- 2 -->
    <g transform="translate(426.412384 218.163106) scale(0.1 -0.1)">
     <use xlink:href="#DejaVuSans-32"/>
    </g>
   </g>
   <g id="text_24">
    <!-- 2 -->
    <g transform="translate(361.066678 151.159587) scale(0.1 -0.1)">
     <use xlink:href="#DejaVuSans-32"/>
    </g>
   </g>
   <g id="text_25">
    <!-- 3 -->
    <g transform="translate(456.014506 218.163106) scale(0.1 -0.1)">
     <use xlink:href="#DejaVuSans-33"/>
    </g>
   </g>
   <g id="text_26">
    <!-- 3 -->
    <g transform="translate(361.066678 121.557465) scale(0.1 -0.1)">
     <use xlink:href="#DejaVuSans-33"/>
    </g>
   </g>
   <g id="text_27">
    <!-- 4 -->
    <g transform="translate(485.616628 218.163106) scale(0.1 -0.1)">
     <use xlink:href="#DejaVuSans-34"/>
    </g>
   </g>
   <g id="text_28">
    <!-- 4 -->
    <g transform="translate(361.066678 91.955343) scale(0.1 -0.1)">
     <use xlink:href="#DejaVuSans-34"/>
    </g>
   </g>
   <g id="text_29">
    <!-- x -->
    <g transform="translate(508.93 219.761956) scale(0.16 -0.16)">
     <use xlink:href="#DejaVuSans-78"/>
    </g>
   </g>
   <g id="text_30">
    <!-- y -->
    <g transform="translate(360.91939 71.751346) scale(0.16 -0.16)">
     <use xlink:href="#DejaVuSans-79"/>
    </g>
   </g>
  </g>
 </g>
 <defs>
  <clipPath id="pa76764cd43">
   <rect x="72" y="59.593846" width="171.692308" height="171.692308"/>
  </clipPath>
  <clipPath id="pdc8be7ea5d">
   <rect x="346.707692" y="59.593846" width="171.692308" height="171.692308"/>
  </clipPath>
 </defs>
</svg>
